<?xml version="1.0" encoding="UTF-8"?>
<svg id="Layer_2" data-name="Layer 2" xmlns="http://www.w3.org/2000/svg" xmlns:xlink="http://www.w3.org/1999/xlink" viewBox="0 0 178 193.58">
  <defs>
    <style>
      .cls-1 {
        clip-path: url(#clippath-2);
      }

      .cls-2 {
        fill: #2f2a8b;
        fill-rule: evenodd;
      }

      .cls-3 {
        clip-path: url(#clippath-1);
      }

      .cls-4 {
        clip-path: url(#clippath);
      }

      .cls-5 {
        fill: none;
      }
    </style>
    <clipPath id="clippath">
      <rect class="cls-5" x="53.72" width="69.33" height="36.49"/>
    </clipPath>
    <clipPath id="clippath-1">
      <rect class="cls-5" y="4.49" width="39.06" height="5.33"/>
    </clipPath>
    <clipPath id="clippath-2">
      <rect class="cls-5" x="139.06" y="4.49" width="38.94" height="5.33"/>
    </clipPath>
  </defs>
  <g id="Layer_1-2" data-name="Layer 1">
    <g>
      <path class="cls-2" d="m107.24,53.98h-36.48c-1.06,0-1.98-.74-2.21-1.78l-2.56-11.51h46.03l-2.56,11.51c-.23,1.04-1.15,1.78-2.21,1.78Z"/>
      <g class="cls-4">
        <path class="cls-2" d="m120.72,36.17h-63.43c-1.26,0-2.27-1.02-2.27-2.27v-15.74C55.02,8.23,63.1.16,73.05.16h31.91c9.94,0,18.03,8.07,18.03,18.01v15.74c0,1.25-1.02,2.27-2.27,2.27Z"/>
      </g>
      <path class="cls-2" d="m41.73,63.88c-1.25,0-2.27-1.01-2.27-2.27v-16.43c0-.72.34-1.41.94-1.83l15.54-11.29c1.02-.73,2.43-.51,3.17.51.74,1.01.51,2.43-.51,3.17l-14.61,10.6v15.28c0,1.26-1.02,2.27-2.27,2.27Z"/>
      <path class="cls-2" d="m136.27,63.88c-1.26,0-2.27-1.01-2.27-2.27v-15.28l-14.61-10.6c-1.01-.74-1.24-2.16-.5-3.17.73-1.02,2.16-1.24,3.17-.51l15.54,11.29c.59.43.94,1.11.94,1.83v16.43c0,1.26-1.02,2.27-2.27,2.27Z"/>
      <path class="cls-2" d="m57.29,22.86H2.88c-1.25,0-2.27-1.02-2.27-2.27s1.02-2.27,2.27-2.27h54.41c1.25,0,2.27,1.02,2.27,2.27s-1.02,2.27-2.27,2.27Z"/>
      <path class="cls-2" d="m19,22.86c-1.26,0-2.27-1.02-2.27-2.27V6.78c0-1.25,1.02-2.27,2.27-2.27s2.27,1.02,2.27,2.27v13.82c0,1.25-1.02,2.27-2.27,2.27Z"/>
      <g class="cls-3">
        <path class="cls-2" d="m35.72,9.04H2.28C1.02,9.04,0,8.03,0,6.78s1.02-2.27,2.27-2.27h33.44c1.26,0,2.27,1.02,2.27,2.27s-1.02,2.27-2.27,2.27Z"/>
      </g>
      <path class="cls-2" d="m175.12,22.86h-54.4c-1.25,0-2.27-1.02-2.27-2.27s1.02-2.27,2.27-2.27h54.4c1.26,0,2.27,1.02,2.27,2.27s-1.02,2.27-2.27,2.27Z"/>
      <path class="cls-2" d="m159.01,22.86c-1.25,0-2.27-1.02-2.27-2.27V6.78c0-1.25,1.02-2.27,2.27-2.27s2.27,1.02,2.27,2.27v13.82c0,1.25-1.02,2.27-2.27,2.27Z"/>
      <g class="cls-1">
        <path class="cls-2" d="m175.73,9.04h-33.44c-1.26,0-2.27-1.01-2.27-2.27s1.02-2.27,2.27-2.27h33.44c1.26,0,2.27,1.02,2.27,2.27s-1.02,2.27-2.27,2.27Z"/>
      </g>
      <path class="cls-2" d="m90.45,72.26c-1.76,0-3.56-.24-5.4-.73-4.8-1.29-8.11-3.86-8.25-3.97-.98-.78-1.15-2.2-.38-3.18.78-.98,2.2-1.16,3.19-.38.45.35,10.81,8.2,20.32.06.95-.82,2.38-.7,3.2.24.82.95.7,2.39-.24,3.2-3.69,3.16-7.92,4.77-12.43,4.77Z"/>
      <path class="cls-2" d="m91.26,90.6c-4.29,0-8.23-.67-11.61-1.58-10.47-2.82-17.6-8.36-17.91-8.6-.98-.78-1.15-2.2-.38-3.18.77-.98,2.2-1.16,3.19-.39.08.07,6.82,5.28,16.42,7.83,12.64,3.36,24.08.74,34.03-7.77.95-.81,2.38-.7,3.2.24.81.95.7,2.39-.24,3.2-9.14,7.82-18.55,10.24-26.7,10.24Z"/>
      <path class="cls-2" d="m161.51,193.58c-.55,0-1.1-.2-1.54-.6-.07-.06-7.44-6.74-19.67-10.01-16.33-4.36-33.16-.92-50.04,10.23-.76.51-1.74.51-2.51,0-16.95-11.21-33.86-14.64-50.25-10.18-12.17,3.31-19.4,9.89-19.47,9.95-.92.85-2.35.8-3.21-.13-.85-.92-.79-2.35.13-3.2.32-.3,8.13-7.4,21.35-11,11.94-3.25,30.7-4.09,52.69,9.96,21.99-14.05,40.75-13.21,52.7-9.96,13.23,3.6,21.03,10.7,21.35,11,.92.85.98,2.28.13,3.2-.45.48-1.06.73-1.67.73Z"/>
      <path class="cls-2" d="m56.11,181.36c-1.26,0-2.27-1.02-2.27-2.27v-69.67c0-1.25,1.02-2.27,2.27-2.27s2.27,1.02,2.27,2.27v69.67c0,1.26-1.01,2.27-2.27,2.27Z"/>
      <path class="cls-2" d="m56.27,176.55c-.59,0-1.18-.23-1.63-.68l-16.74-17.08c-.88-.9-.86-2.33.04-3.2.89-.88,2.33-.86,3.21.03l16.73,17.08c.88.9.86,2.33-.03,3.21-.44.43-1.02.65-1.59.65Z"/>
      <path class="cls-2" d="m56.27,143.57c-.6,0-1.19-.23-1.64-.69l-16.49-17.17c-.87-.9-.84-2.33.06-3.2.91-.86,2.34-.83,3.21.07l16.48,17.16c.87.9.84,2.34-.06,3.2-.44.42-1.01.63-1.57.63Z"/>
      <path class="cls-2" d="m56.26,176.55c-.55,0-1.1-.2-1.54-.6-.92-.85-.97-2.29-.12-3.21l16.23-17.42c.85-.92,2.29-.97,3.21-.11s.97,2.29.11,3.2l-16.23,17.42c-.45.48-1.06.72-1.67.72Z"/>
      <path class="cls-2" d="m56.26,143.57c-.55,0-1.11-.2-1.55-.61-.92-.86-.96-2.29-.1-3.2l16.01-17.01c.86-.91,2.3-.95,3.21-.1.92.86.96,2.3.1,3.2l-16.02,17.01c-.45.47-1.05.71-1.66.71Z"/>
      <path class="cls-2" d="m37.87,131.14c-2.44,0-4.7-1.02-6.54-2.94-2.45-2.57-5.26-8.06-4.69-19.59.04-.79.48-1.5,1.18-1.88.69-.38,1.54-.37,2.22.03l11.46,6.61c.09.05.18.11.26.18,4.19,3.26,5.87,7.59,4.49,11.58-1.22,3.55-4.67,6.02-8.38,6.02Z"/>
      <path class="cls-2" d="m56.21,116.65c-3.23,0-6.08-1.68-7.63-4.51-1.93-3.55-2.67-10.19,4.8-21.77.43-.67,1.17-1.07,1.96-1.04.79.02,1.51.45,1.91,1.14l6.61,11.44c.06.09.1.18.14.28,1.63,4.02,1.48,7.79-.42,10.59-1.63,2.42-4.4,3.86-7.39,3.86Z"/>
      <path class="cls-2" d="m73.56,131.14c-3.71,0-7.16-2.47-8.39-6.02-1.38-3.99.31-8.32,4.5-11.58.08-.07.17-.13.26-.18l11.46-6.61c.69-.39,1.53-.4,2.22-.03.69.38,1.14,1.09,1.18,1.88.56,11.53-2.24,17.02-4.7,19.59-1.84,1.92-4.09,2.94-6.54,2.94Z"/>
      <path class="cls-2" d="m73.69,163.39h0c-3.71,0-7.16-2.48-8.38-6.03-1.38-3.98.31-8.32,4.5-11.58.08-.06.17-.13.26-.18l11.46-6.6c.68-.4,1.53-.41,2.22-.03.69.38,1.15,1.09,1.18,1.88.56,11.53-2.24,17.02-4.7,19.59-1.84,1.93-4.1,2.94-6.54,2.94Z"/>
      <path class="cls-2" d="m104.32,164.48c-2.44,0-4.7-1.02-6.54-2.94-2.45-2.58-5.26-8.06-4.69-19.59.04-.79.48-1.5,1.18-1.88.69-.39,1.54-.38,2.22.03l11.46,6.6c.09.05.18.11.26.17,4.19,3.27,5.87,7.6,4.49,11.58-1.22,3.55-4.67,6.02-8.38,6.02Z"/>
      <path class="cls-2" d="m104.32,131.05c-2.44,0-4.7-1.02-6.54-2.94-2.45-2.58-5.26-8.06-4.69-19.59.04-.79.48-1.51,1.18-1.88.69-.38,1.54-.37,2.22.03l11.46,6.61c.09.05.18.11.26.17,4.19,3.27,5.87,7.59,4.49,11.58-1.22,3.55-4.67,6.02-8.38,6.02Z"/>
      <path class="cls-2" d="m122.65,116.56c-3.23,0-6.08-1.69-7.62-4.51-1.93-3.55-2.67-10.2,4.8-21.78.43-.66,1.18-1.06,1.96-1.04.79.02,1.52.45,1.91,1.13l6.61,11.44c.06.09.1.18.14.28,1.63,4.02,1.48,7.79-.42,10.6-1.64,2.42-4.4,3.86-7.39,3.86Z"/>
      <path class="cls-2" d="m140.01,131.05h0c-3.71,0-7.16-2.48-8.38-6.02-1.38-3.99.31-8.32,4.5-11.58.08-.06.17-.12.26-.17l11.46-6.61c.69-.4,1.53-.41,2.22-.03s1.14,1.09,1.18,1.88c.56,11.53-2.24,17.02-4.7,19.59-1.84,1.92-4.1,2.94-6.54,2.94Z"/>
      <path class="cls-2" d="m140.14,163.3h0c-3.71,0-7.16-2.48-8.38-6.03-1.38-3.99.31-8.32,4.49-11.58.08-.06.17-.12.26-.17l11.46-6.61c.68-.39,1.53-.4,2.22-.03.7.38,1.15,1.09,1.18,1.88.56,11.53-2.24,17.02-4.7,19.59-1.84,1.93-4.09,2.95-6.53,2.95Z"/>
      <path class="cls-2" d="m37.87,164.58c-2.44,0-4.7-1.02-6.54-2.95-2.45-2.57-5.26-8.06-4.69-19.59.04-.79.48-1.5,1.18-1.88.69-.38,1.54-.37,2.22.03l11.46,6.6c.09.05.18.11.26.18,4.19,3.26,5.87,7.59,4.49,11.58-1.22,3.54-4.67,6.02-8.38,6.02Z"/>
      <path class="cls-2" d="m122.56,181.27c-1.25,0-2.27-1.02-2.27-2.27v-69.67c0-1.26,1.02-2.27,2.27-2.27s2.27,1.02,2.27,2.27v69.67c0,1.25-1.02,2.27-2.27,2.27Z"/>
      <path class="cls-2" d="m122.71,176.46c-.59,0-1.18-.23-1.62-.68l-16.74-17.08c-.88-.9-.86-2.33.04-3.21s2.33-.86,3.21.04l16.73,17.08c.88.9.86,2.33-.04,3.21-.44.43-1.01.65-1.59.65Z"/>
      <path class="cls-2" d="m122.71,143.48c-.59,0-1.19-.23-1.64-.7l-16.49-17.16c-.86-.9-.83-2.34.07-3.2.91-.87,2.34-.84,3.21.06l16.49,17.17c.87.9.84,2.33-.06,3.2-.44.42-1.01.63-1.58.63Z"/>
      <path class="cls-2" d="m122.71,176.46c-.55,0-1.11-.2-1.54-.6-.92-.85-.97-2.29-.12-3.21l16.23-17.43c.86-.91,2.3-.97,3.21-.11s.97,2.29.11,3.21l-16.23,17.42c-.45.48-1.06.72-1.67.72Z"/>
      <path class="cls-2" d="m122.71,143.48c-.56,0-1.11-.2-1.55-.61-.91-.86-.96-2.3-.1-3.2l16.02-17.01c.86-.91,2.3-.96,3.21-.1.92.86.96,2.29.1,3.2l-16.02,17.01c-.45.47-1.05.71-1.66.71Z"/>
    </g>
  </g>
</svg>