<?xml version="1.0" encoding="UTF-8"?>
<svg id="Layer_2" data-name="Layer 2" xmlns="http://www.w3.org/2000/svg" xmlns:xlink="http://www.w3.org/1999/xlink" viewBox="0 0 206 162">
  <defs>
    <style>
      .cls-1 {
        clip-path: url(#clippath-2);
      }

      .cls-2 {
        clip-path: url(#clippath-1);
      }

      .cls-3 {
        clip-path: url(#clippath-4);
      }

      .cls-4 {
        clip-path: url(#clippath);
      }

      .cls-5 {
        fill: none;
      }

      .cls-6 {
        clip-path: url(#clippath-3);
      }

      .cls-7 {
        fill: #2f2a8b;
      }
    </style>
    <clipPath id="clippath">
      <rect class="cls-5" x="73.14" y="102.82" width="60" height="59.18"/>
    </clipPath>
    <clipPath id="clippath-1">
      <rect class="cls-5" x="161.14" width="16" height="8.16"/>
    </clipPath>
    <clipPath id="clippath-2">
      <rect class="cls-5" x="131.81" y="13.49" width="74.19" height="9.33"/>
    </clipPath>
    <clipPath id="clippath-3">
      <rect class="cls-5" x="25.14" width="16" height="8.16"/>
    </clipPath>
    <clipPath id="clippath-4">
      <rect class="cls-5" y="13.49" width="74.47" height="9.33"/>
    </clipPath>
  </defs>
  <g id="Layer_1-2" data-name="Layer 1">
    <g>
      <path class="cls-7" d="m51.5,114.11h-11.04v11.04h11.04v-11.04"/>
      <path class="cls-7" d="m95.64,121.47c-2.03,0-3.68,1.66-3.68,3.68v7.36h7.35v-7.36c0-2.03-1.65-3.68-3.68-3.68"/>
      <path class="cls-7" d="m147.14,147.22v-55.19c0-4.05-3.3-7.36-7.35-7.36h-73.57c-4.05,0-7.36,3.31-7.36,7.36v55.19c0,4.06,3.31,7.36,7.36,7.36h7.43c-4.64-6.15-7.43-13.78-7.43-22.07,0-20.3,16.49-36.8,36.79-36.8s36.79,16.5,36.79,36.8c0,8.29-2.79,15.92-7.43,22.07h7.43c4.05,0,7.35-3.3,7.35-7.36"/>
      <path class="cls-7" d="m154.5,114.11v11.04h11.04v-11.04h-11.04"/>
      <g class="cls-4">
        <path class="cls-7" d="m121.39,147.22c0,2.03-1.65,3.68-3.68,3.68s-3.68-1.65-3.68-3.68v-29.43c0-2.03,1.65-3.68,3.68-3.68s3.68,1.65,3.68,3.68v29.43Zm-14.71,0c0,2.03-1.65,3.68-3.68,3.68s-3.68-1.65-3.68-3.68v-7.35h-7.35v7.35c0,2.03-1.65,3.68-3.68,3.68s-3.68-1.65-3.68-3.68v-22.07c0-6.09,4.94-11.04,11.04-11.04s11.04,4.94,11.04,11.04v22.07Zm25.75-14.71c0-16.23-13.2-29.44-29.43-29.44s-29.43,13.21-29.43,29.44,13.21,29.43,29.43,29.43,29.43-13.21,29.43-29.43"/>
      </g>
      <path class="cls-7" d="m106.68,44.28v7.29c0,2.03-1.65,3.68-3.68,3.68s-3.68-1.66-3.68-3.68v-7.29c-.56.02-1.12.02-1.69.03l-79.31,3.06c-4.09.16-7.28,3.51-7.28,7.62s3.39,7.61,7.57,7.61h168.78c4.18,0,7.57-3.42,7.57-7.61s-3.19-7.46-7.29-7.62l-79.3-3.06c-.56-.02-1.14-.02-1.7-.03"/>
      <path class="cls-7" d="m161.85,29.49v9.53l14.71.56v-10.09h-14.71"/>
      <path class="cls-7" d="m180.25,147.22v-77.27h-7.36v77.27c0,2.03,1.65,3.68,3.68,3.68s3.68-1.65,3.68-3.68"/>
      <g class="cls-2">
        <path class="cls-7" d="m169.21.05c-4.05,0-7.36,3.31-7.36,7.36h14.71c0-4.05-3.3-7.36-7.35-7.36"/>
      </g>
      <path class="cls-7" d="m29.43,150.91c2.03,0,3.68-1.65,3.68-3.68v-77.27h-7.35v77.27c0,2.03,1.65,3.68,3.68,3.68"/>
      <path class="cls-7" d="m40.46,39.16v-9.67h-14.71v10.23l14.71-.56"/>
      <g class="cls-1">
        <path class="cls-7" d="m202.32,14.77h-66.21c-2.03,0-3.68,1.65-3.68,3.68s1.65,3.68,3.68,3.68h66.21c2.03,0,3.68-1.66,3.68-3.68s-1.66-3.68-3.68-3.68"/>
      </g>
      <g class="cls-6">
        <path class="cls-7" d="m33.1.05c-4.05,0-7.35,3.31-7.35,7.36h14.71C40.46,3.36,37.16.05,33.1.05"/>
      </g>
      <g class="cls-3">
        <path class="cls-7" d="m3.68,22.13h66.21c2.03,0,3.68-1.66,3.68-3.68s-1.65-3.68-3.68-3.68H3.68c-2.03,0-3.68,1.65-3.68,3.68s1.65,3.68,3.68,3.68"/>
      </g>
    </g>
  </g>
</svg>