<?xml version="1.0" encoding="UTF-8"?>
<svg id="Layer_2" data-name="Layer 2" xmlns="http://www.w3.org/2000/svg" xmlns:xlink="http://www.w3.org/1999/xlink" viewBox="0 0 209.83 168">
  <defs>
    <style>
      .cls-1 {
        clip-path: url(#clippath-1);
      }

      .cls-2 {
        clip-path: url(#clippath);
      }

      .cls-3 {
        fill: none;
      }

      .cls-4 {
        fill: #2f2a8b;
      }
    </style>
    <clipPath id="clippath">
      <rect class="cls-3" x="84" width="125.83" height="125.48"/>
    </clipPath>
    <clipPath id="clippath-1">
      <rect class="cls-3" y="97.48" width="40" height="70.52"/>
    </clipPath>
  </defs>
  <g id="Layer_1-2" data-name="Layer 1">
    <g>
      <path class="cls-4" d="m32.2,106.56c.1.4.2.82.3,1.26.83.38,1.23,1.34.9,2.21-.09.21-.21.4-.36.56.07.45.15.92.21,1.4.73.12,1.52.22,2.23.29-.23-.44-.29-.97-.09-1.46.35-.89,1.35-1.32,2.24-.97.89.35,1.32,1.35.97,2.24-.1.24-.25.45-.43.63.43.19.83.44,1.17.76l1.72-2.97c.23-.58-.06-1.24-.64-1.47l-2.41-.96.22-.57-1.29-.52.36-.9-2.06-.82-.35.9-1.29-.51-.23.57-1.39-.55c.08.28.16.57.23.88h0Z"/>
      <path class="cls-4" d="m35.66,111.3l.26-.66,2.41.95-.26.66-2.41-.96Z"/>
      <path class="cls-4" d="m43.31,106.84l2.05-5.17c.15-.39-.04-.82-.42-.98l-3.36-1.33.32-.81-4.84-1.92-.32.81-3.36-1.34c-.39-.15-.83.04-.98.43l-1.98,5c.19.39.38.79.56,1.23l11.36,4.51c.39.16.83-.04.98-.42Zm-10.92-4.31l2.06-5.21,8.85,3.52-2.06,5.2-8.85-3.51Z"/>
      <g class="cls-2">
        <path class="cls-4" d="m160.03,125.24h24.81v-3.06h-5.49v-2.71h-5.5v-49.16h4.48v-1.81h-4.48v-10.42h4.48v-1.81h-4.48v-12.01h1.13v-11.04h8.1v-7.27h23.97v-3.04h2.68v-5.19h-3.87L171.22.61l-.11-.61h-1.71l-.08.46-50.99,18.5h-26.91l-7.2,7.21h10.16v1.77h3.47v7.68h-.86l1.05,5.41h.99v.51s-1.02.38-1.29.85c-.27.46-.66,1.71.27,2.4.93.7,1.7.44,2.1.19.4-.26.88-.82.95-1.51s.33-.84.21-.95c-.15-.14-.59-.07-.88.55-.29.63-.33.89-.99.76s-.62-.73-.57-.83c.05-.11.18-.41.75-.7.57-.3.48-.65.48-.65v-.62h1.01l1.05-5.41h-.86v-7.68h3.47v-1.77h52.71v7.06h8.09v11.04h1.14v12.01h-4.49v1.81h4.49v10.42h-4.49v1.81h4.49v49.16h-5.51v2.71h-5.48v3.06h.86l2.89-.55.61.55ZM96.67,19.76l-2.92,1.46-1.46-1.46h4.38Zm.19.41l-2.07,2.08-.69-.69,2.77-1.39Zm-5.16-.37l1.63,1.64-6.53,3.27,4.9-4.91Zm-.12,5.58h-5.11l7.2-3.61.8.8-2.81,2.81h-.08Zm2.8-1.69v1.69h-2.08l2.49-2.49.8.8h-1.21Zm2.23,3.16c-.52,0-.93-.42-.93-.93s.42-.93.93-.93.93.42.93.93-.42.93-.93.93Zm.98-3.16h-1.37l-1.12-1.12,2.49-2.49v3.61Zm6.09-3.93l-2.49,2.49-2.49-2.49h4.98Zm-5.3.32l2.48,2.49-1.12,1.12h-1.36v-3.61Zm2.42,15.55h-2.5v-7.68h2.5v7.68Zm-.41-11.93l.8-.8.8.8h-1.6Zm2.1,3.16c-.52,0-.93-.42-.93-.93s.42-.93.93-.93.94.42.94.93-.42.93-.94.93Zm1.51-3.16h-1.36l-1.13-1.12,2.49-2.49v3.61Zm6.09-3.93l-2.49,2.49-2.49-2.49h4.98Zm-5.3.32l2.49,2.49-2.49,2.49v-4.98Zm.32,5.31l2.49-2.49,2.49,2.49h-4.98Zm5.3-.32l-2.48-2.49,2.48-2.49v4.98Zm6.09-5.3l-2.48,2.49-2.49-2.49h4.97Zm-5.3.32l2.49,2.49-2.49,2.49v-4.98Zm.32,5.31l2.49-2.49,2.48,2.49h-4.97Zm5.3-.32l-2.49-2.49,2.49-2.49v4.98Zm50.63,94.42v-4.08l2.49,2.49-1.58,1.58h-.91Zm.32-5.19l2.49-2.49,2.48,2.49h-4.97Zm4.97.79l-2.48,2.49-2.49-2.49h4.97Zm-4.97-6.42h4.97l-2.48,2.49-2.49-2.49Zm0-.79l2.49-2.49,2.48,2.49h-4.97Zm0-5.63h4.97l-2.48,2.49-2.49-2.49Zm0-.79l2.49-2.49,2.48,2.49h-4.97Zm0-5.63h4.97l-2.48,2.49-2.49-2.49Zm0-.8l2.49-2.49,2.48,2.49h-4.97Zm0-5.63h4.97l-2.48,2.49-2.49-2.49Zm0-.79l2.49-2.49,2.48,2.49h-4.97Zm0-5.63h4.97l-2.48,2.49-2.49-2.49Zm0-.79l2.49-2.49,2.48,2.49h-4.97Zm0-5.63h4.97l-2.48,2.49-2.49-2.49Zm0-.79l2.49-2.49,2.48,2.49h-4.97Zm.17-5.46h4.64l-2.32,2.32-2.32-2.32Zm.68-1.81l1.64-1.64,1.64,1.64h-3.28Zm-.85-4.78h4.97l-2.48,2.49-2.49-2.49Zm0-.79l2.49-2.49,2.48,2.49h-4.97Zm.77-4.85h3.43l-1.71,1.72-1.72-1.72Zm-.53-1.81l2.24-2.25,2.24,2.25h-4.48Zm-.24-5.38h4.97l-2.48,2.49-2.49-2.49Zm0-.79l2.49-2.49,2.48,2.49h-4.97Zm0-5.63h4.97l-2.48,2.49-2.49-2.49Zm2.17,2.81l-2.49,2.49v-4.98l2.49,2.49Zm0,6.42l-2.49,2.49v-4.98l2.49,2.49Zm-2.04,4.38l2.04,2.04-2.49,2.49v-4.53h.45Zm2.04,8.45l-1.96,1.96h-.53v-4.45l2.49,2.49Zm0,6.42l-2.49,2.49v-4.98l2.49,2.49Zm0,6.42l-2.49,2.49v-4.98l2.49,2.49Zm0,6.42l-2.49,2.49v-4.98l2.49,2.49Zm0,6.42l-2.49,2.49v-4.98l2.49,2.49Zm0,6.42l-2.49,2.49v-4.98l2.49,2.49Zm0,6.42l-2.49,2.49v-4.98l2.49,2.49Zm0,6.42l-2.49,2.49v-4.98l2.49,2.49Zm-.94,8.01l1.27-1.27,1.26,1.27h-2.53Zm4.07,0h-.91l-1.58-1.58,2.49-2.49v4.08Zm0-5.51l-2.49-2.49,2.49-2.49v4.98Zm0-6.42l-2.49-2.49,2.49-2.49v4.98Zm0-6.42l-2.49-2.49,2.49-2.49v4.98Zm0-6.42l-2.49-2.49,2.49-2.49v4.98Zm0-6.42l-2.49-2.49,2.49-2.49v4.98Zm0-6.42l-2.49-2.49,2.49-2.49v4.98Zm0-6.42l-2.49-2.49,2.49-2.49v4.98Zm0-6.95h-.53l-1.96-1.96,2.49-2.49v4.45Zm0-5.89l-2.49-2.49,2.04-2.04h.45v4.53Zm0-6.42l-2.49-2.49,2.49-2.49v4.98Zm0-6.42l-2.49-2.49,2.49-2.49v4.98Zm1.36-22.22h-1.9v-.68h1.9v.68Zm-3.78-7.93l2.92-2.05.88,4.71-3.8-2.66Zm-.39-7.37l-1.84-2.31h3.68l-1.84,2.31Zm1.99-1.78l1.04,5.58-2.74-3.44,1.71-2.14Zm-2.29,2.14l-2.74,3.44,1.04-5.58,1.71,2.14Zm.29.36l2.86,3.59h-5.72l2.86-3.59Zm2.83,4.38l-2.83,1.98-2.83-1.98h5.67Zm8.74,10.19h-6.52v-.68h6.52v.68Zm18.66-2.63h-24.23v-1.76h24.23v1.76Zm4.34-7.21h-4.34v1.97l-26.86-17.41,31.2,15.43Zm-4.34,2.52v1.92h-5.99v-1.85h-13.29v1.85h-5.99l-3.86-20.79,29.13,18.88ZM170.05.79h.4l1.55,8.37h-3.51l1.55-8.37Zm-47.15,18.96l-2.49,2.49-2.49-2.49h4.98Zm-5.3.32l2.48,2.49-2.48,2.49v-4.98Zm.32,5.31l2.49-2.49,2.49,2.49h-4.98Zm5.3-.32l-2.49-2.49,2.49-2.49v4.98Zm3.28-2.49l-2.49,2.49v-4.98l2.49,2.49Zm-2.17-2.81h4.98l-2.49,2.49-2.49-2.49Zm0,5.63l2.49-2.49,2.49,2.49h-4.98Zm5.3-.32l-2.48-2.49,2.48-2.49v4.98Zm3.28-2.49l-2.49,2.49v-4.98l2.49,2.49Zm-2.17-2.81h4.97l-2.48,2.49-2.49-2.49Zm0,5.63l2.49-2.49,2.48,2.49h-4.97Zm5.3-.32l-2.49-2.49,2.49-2.49v4.98Zm3.28-2.49l-2.49,2.49v-4.98l2.49,2.49Zm-2.17-2.81h4.98l-2.49,2.49-2.49-2.49Zm0,5.63l2.49-2.49,2.49,2.49h-4.98Zm5.3-.32l-2.49-2.49,2.49-2.49v4.98Zm3.28-2.49l-2.49,2.49v-4.98l2.49,2.49Zm-2.17-2.81h4.98l-2.49,2.49-2.49-2.49Zm0,5.63l2.49-2.49,2.49,2.49h-4.98Zm5.3-.32l-2.48-2.49,2.48-2.49v4.98Zm3.28-2.49l-2.49,2.49v-4.98l2.49,2.49Zm-2.17-2.81h4.97l-2.48,2.49-2.49-2.49Zm0,5.63l2.49-2.49,2.48,2.49h-4.97Zm5.3-.32l-2.49-2.49,2.49-2.49v4.98Zm3.6-2.81l-2.49-2.49h4.98l-2.49,2.49Zm2.81-2.17v4.98l-2.49-2.49,2.49-2.49Zm-3.13,2.49l-2.49,2.49v-4.98l2.49,2.49Zm-2.17,2.81l2.49-2.49,2.49,2.49h-4.98Zm8.45,4.96h-5.66v-3.29h5.66v3.29Zm.38-7.7h-.95v2.89h-1.79v-6.57h-42.81L169.21.97l-4.02,21.67Zm1.74-5.05l2.92,2.05-3.8,2.66.88-4.71Zm-.58,5.05l3.9-2.73,3.89,2.73h-7.79Z"/>
      </g>
      <path class="cls-4" d="m91.17,120.51h9.36v2.45h6.97v2.28h45.94v-5.39h-1.45v-4.95h-6.44v-2.66h-.37v2.66h-1.87v-2.66h-.38v2.66h-2.59v-2.66h-.38v2.66h-1.86v-2.66h-.38v2.66h-3.32v-2.66h-.38v2.66h-1.87v-2.66h-.38v2.66h-2.59v-2.66h-.37v2.66h-1.87v-2.66h-.38v2.66h-1.8v-3.47h-3.86v3.47h-1.55v4.95h-3.61v-3.99h-3.21v-2.47h-.56v2.47h-1.53v-2.47h-.56v2.47h-3.43v-2.47h-.56v2.47h-1.53v-2.47h-.56v2.47h-1.64v3.05h-2.28l-2.49-5.19h.55v-.31h-.66v-1.76h.66v-.3h-.66v-3.93h.66v-.31h-.66v-1.76h.66v-.31h-.66v-3.93h.66v-.3h-.66v-4.15h-.3v2.56l-.76,1.58h-1.25v-4.15h-.3v2.53l-.78,1.61h-7.04v-4.15h-.31v4.15h-.66v.3h.66v3.93h-.66v.31h.66v1.76h-.66v.31h.66v3.93h-.66v.3h.66v1.76h-.66v.31h.54l-2.48,5.19h-2.99v.94h-4.32v3.1h14.52v-2.45Zm6.13-6.32l2.27,4.73h-2.27v-4.73Zm-.3-7.07h-.7l-.84-1.76h1.54v1.76Zm0-7.18v.89h-.42l.42-.89Zm-2.01,1.19h2.01v3.93h-1.69l-.32-.68v-3.26Zm0,4.24h.14l.84,1.76h-.97v-1.76Zm0,2.06h2.01v3.93h-2.01v-3.93Zm0,4.23h2.01v1.76h-2.01v-1.76Zm0,2.07h2.01v5.19h-2.01v-5.19Zm-8.42,5.19h-2.26l2.26-4.73v4.73Zm8.12-19.02v.92h-.44l.44-.92Zm0,1.22v2.62l-1.26-2.62h1.26Zm-7.81,0h6.22l1.59,3.33v.6h-7.81v-3.93Zm0,4.24h7.81v1.76h-7.81v-1.76Zm0,2.06h7.81v3.93h-7.81v-3.93Zm0,4.23h7.81v1.76h-7.81v-1.76Zm0,7.26v-5.19h2.69l-2.49,5.19h-.2Zm.54,0l2.48-5.19h.58l-2.49,5.19h-.57Zm3.4-5.19h3.88v5.19h-6.36l2.49-5.19Z"/>
      <path class="cls-4" d="m107.51,127.53h-1.13v-3.43h-6.97v-2.45h-7.09v2.45h-19.3v3.43h-40.34v.94h112.29l1.21-.94h-38.65Z"/>
      <path class="cls-4" d="m189.72,128.46v-.94h-27.63l.32.94h27.31Z"/>
      <path class="cls-4" d="m184.91,135.3l-1.88,1.38.33.24-1.32,1.82,2.31.23,5.29.07,3.18-2.23-5.32-1.52h-2.59Z"/>
      <path class="cls-4" d="m178.48,134.3l-2.69-1.75-4.3,1.34-2.62,2.91-.94,1.41,2.49,2.09,5.45-.02,4.48-.49,1.96-2.7-3.83-2.78Z"/>
      <path class="cls-4" d="m126.75,132.69l-1.06.28-.89,1.14,4.13.2,1.76-1.1-1.22-1.11-2.72.59Z"/>
      <path class="cls-4" d="m140.72,135.03l-.88-.32-1.83.73-.46.69,1.49.33,1.57-.54.11-.89Z"/>
      <path class="cls-4" d="m195.77,139.16l.11-.89-.89-.32-1.83.73-.46.69,1.49.33,1.57-.54Z"/>
      <path class="cls-4" d="m153.39,130.18l5.19-.25,1.32.9,2.44-.25-1.12-3.25-2.03-1.82-5.45,1.04h-5.08l-4.13,3.19-6.42.48-3.07,1.66,10.76.31,5.07-.45,2.51-1.55Z"/>
      <path class="cls-4" d="m162.76,133.7l-4.39-3.01-4.74.23-4.03,2.47-2.52.8-1.18,1.18h6.9l11.5-.27.76-.39-2.3-1.02Z"/>
      <path class="cls-4" d="m117.24,134.55l1.9-.41-.38-.77-6.92-2.76-3.83,3.19,3.26,1.1-2.18,2.07,5.39-.23,1.44-1.84,1.32-.35Z"/>
      <path class="cls-4" d="m105.71,133.82h-2.39l-3.07,2.24-.48.83,3.03.31,4.89.07,2.16-2.04-4.14-1.4Z"/>
      <path class="cls-4" d="m117.41,135.29l-1.05.28-.89,1.15,4.12.19,1.77-1.09-1.22-1.11-2.72.59Z"/>
      <path class="cls-4" d="m25.66,88.48c-.1-.4-.22-.79-.38-1.16l-16.3,4.03c.04.4.11.8.21,1.2.38,1.52,1.14,2.83,2.15,3.88h12.17c1.96-2.03,2.88-5.01,2.15-7.95Z"/>
      <path class="cls-4" d="m7.8,88.53c-.61.15-.98.77-.83,1.38.15.61.77.98,1.38.83l15.05-3.72,2.03-.5.15-.04c.61-.15.98-.77.83-1.38-.15-.61-.77-.98-1.38-.83l-.15.04c-.07-.25-.14-.49-.23-.72-.9-2.44-2.81-4.28-5.13-5.15l.17.68c.12.48-.18.97-.66,1.09-.48.12-.97-.18-1.09-.66l-.39-1.59c-.74-.09-1.51-.09-2.28.02l.52,2.11c.12.48-.17.97-.66,1.09s-.97-.18-1.09-.66l-.52-2.11c-.73.26-1.41.62-2.02,1.05l.39,1.59c.12.48-.18.97-.66,1.09-.48.12-.97-.17-1.09-.66l-.17-.68c-1.65,1.85-2.48,4.37-2.15,6.95.03.25.08.5.13.74l-.15.04Z"/>
      <g class="cls-1">
        <path class="cls-4" d="m26.7,119.16v-1.85l1.53.7c2.59,1.18,7.23,1.48,8.14,1.53.06,0,.11,0,.16,0,1.59,0,2.93-1.25,3.01-2.86.08-1.67-1.19-3.09-2.85-3.18-1.23-.06-3.05-.26-4.44-.55-.31-2.3-.69-4.35-1.13-6.11-2.14-8.46-5.73-9.38-7.48-9.27h-14.36c-.83-.03-2.21.15-3.68,1.27-.04.03-.07.06-.1.08C2.34,101.39.55,106.88.01,115.67c-.08,1.41.44,2.72,1.47,3.71.91.87,2.22,1.42,3.69,1.76.37.09.74.16,1.13.22v41.96c0,2.58,2.09,4.67,4.66,4.67s4.66-2.09,4.66-4.67v-34.09h1.74v34.09c0,2.58,2.09,4.67,4.66,4.67s4.67-2.09,4.67-4.67v-44.16Z"/>
      </g>
      <path class="cls-4" d="m69.45,58.44c1.32,0,2.38-1.88,2.38-4.2h-1.78l-.12-1.46c.38.13,1.22.2,3.1.2,3.12,0,7.9-.22,7.9-.49,0-.15-1.05-.29-4.17-.29-2.64,0-5.91.02-6.85.18l-.02-.26c-.03-.3-.21-.53-.43-.53s-.4.23-.43.53l-.03.29c-.36-.13-1.2-.21-3.13-.21-3.12,0-7.9.22-7.9.49,0,.15,1.05.29,4.17.29,2.61,0,5.83-.02,6.82-.18l-.11,1.43h-1.79c0,.36.03.7.08,1.04h-8.36c-.11-.48-.55-.84-1.06-.84h-7.43c-.51,0-.94.36-1.06.84h-8.36c.05-.33.08-.68.08-1.04h-1.79l-.12-1.46c.38.13,1.22.2,3.1.2,3.12,0,7.9-.22,7.9-.49,0-.15-1.05-.29-4.17-.29-2.64,0-5.91.02-6.85.18l-.02-.26c-.03-.3-.21-.53-.43-.53s-.4.23-.43.53l-.02.29c-.36-.13-1.21-.21-3.13-.21-3.12,0-7.9.22-7.9.49,0,.15,1.05.29,4.17.29,2.61,0,5.83-.02,6.82-.18l-.11,1.43h-1.79c0,2.32,1.07,4.2,2.39,4.2.61,0,1.18-.42,1.6-1.09l10.78,2.57-1.82.88c-1.28.63-2.26,1.76-2.68,3.13l-1.47,4.77c-.07.23-.29.39-.54.39h-1.81v1.4h1.81c.86,0,1.61-.55,1.86-1.38l1.47-4.77c.31-.99,1.02-1.83,1.96-2.28l2.63-1.28v.57c0,.3.24.54.55.54h.82v.48h-2.21c-.29,0-.53.23-.53.52v2.71c0,.29.23.53.53.53h2.21v.59h.72v-.59h2.22c.29,0,.52-.23.52-.53v-2.71c0-.29-.23-.52-.52-.52h-2.22v-.48h.67c.3,0,.55-.24.55-.54v-.57l2.63,1.28c.94.45,1.65,1.29,1.96,2.28l1.47,4.77c.26.82,1.01,1.38,1.86,1.38h1.8v-1.4h-1.8c-.25,0-.46-.16-.54-.39l-1.47-4.77c-.42-1.36-1.4-2.5-2.68-3.13l-1.82-.88,10.78-2.57c.42.68.98,1.09,1.6,1.09Zm-14.25,5.81c0,.61-.5,1.11-1.11,1.11s-1.11-.5-1.11-1.11.5-1.11,1.11-1.11,1.11.5,1.11,1.11Z"/>
      <path class="cls-4" d="m54.68,64.25c0,.17-.06.31-.17.42-.12.11-.26.18-.42.18s-.3-.06-.42-.18c-.11-.11-.17-.26-.17-.42s.06-.3.17-.42c.12-.11.26-.17.42-.17s.3.06.42.17c.11.12.17.26.17.42Z"/>
    </g>
  </g>
</svg>