<?xml version="1.0" encoding="UTF-8"?>
<svg id="Layer_2" data-name="Layer 2" xmlns="http://www.w3.org/2000/svg" xmlns:xlink="http://www.w3.org/1999/xlink" viewBox="0 0 245.18 104.99">
  <defs>
    <style>
      .cls-1 {
        clip-path: url(#clippath);
      }

      .cls-2 {
        fill: none;
      }

      .cls-3 {
        fill: #2f2a8b;
      }
    </style>
    <clipPath id="clippath">
      <rect class="cls-2" width="245.18" height="104.99"/>
    </clipPath>
  </defs>
  <g id="Layer_1-2" data-name="Layer 1">
    <g class="cls-1">
      <path class="cls-3" d="m130.86,85.7c-1.5-1.25-3.61-2.04-5.96-2.04s-4.45.79-5.96,2.04c-1.41,1.17-2.28,2.77-2.28,4.52s.87,3.36,2.28,4.54c1.51,1.25,3.61,2.03,5.96,2.03s4.46-.78,5.96-2.03c1.41-1.17,2.28-2.78,2.28-4.54s-.88-3.35-2.28-4.52Zm-17.99-.6c.68-1.16,1.57-2.22,2.66-3.11,2.42-2.01,5.74-3.26,9.38-3.26s6.95,1.25,9.38,3.26c1.47,1.24,2.62,2.75,3.32,4.44h.03c-.39-4.03-2.7-7.54-6.57-9.2-7.42-3.22-18.28-.8-18.18,7.88Zm-81.24-20.89c6.91-1.81,10.31-3.11,11.11-2.7.81.4-19.02,5.7-23.42,13.23-4.41,7.51-1.2,13.63,3.71,16.33,4.91,2.72,10.51,3.22,10.51,3.22,0,0-1.57.73-3.72,1.24,25.61,6.02,65.53-.98,65.61-19.6.31,1.17.47,2.36.47,3.58,0,14.08-21.46,25.51-47.94,25.51S0,93.57,0,79.49s21.46-25.52,47.95-25.52c37.46,0-39.66-1.31-39.15,24.39.08,3.89,1.91,7.17,4.98,9.86-.69-1.2-1.21-2.49-1.53-3.78-2.48-10.21,11.23-18.12,19.37-20.24Zm6.82-42.88c-.31-.4-.59-.82-.82-1.29-2.01-4.16.28-8.01,6.66-10.56,6.39-2.54,13.19-2.72,13.51-2.38.32.35-14,3.46-15.99,7.51-.81,1.63-1.17,3.49.08,5.11,2.29,3,8.21,4.57,10.16,5.53,6.85,1,14.6,1.2,21.33.94-1.37-.49-2.4-.91-2.89-1.19-.88-.5-1.64-1.21-2.25-1.98-2.51,1.05-6.07.24-6.92-2.42-.38-1.15,1.09-9.34,1.57-9.63.65-.36,5.52-.36,6.15,0,.38.23,1.38,5.39,1.59,8.11,7.31,1.57,23.94,6.09,29.79,6.41,4.01.21,7.98-.48,10.77-1.16,2.59-5.82,4.74-10.13,5.62-10.99.82-.82,2.44-1.24,4.06-1.38,1.51-.13,3.32-.05,4.24.17.93-.21,2.74-.29,4.26-.17,1.63.14,3.25.56,4.06,1.38.88.86,3.01,5.15,5.59,10.94,2.54.44,5.53.77,8.54.61,5.64-.29,20.88-4.18,29.17-6.01.18-2.66,1.21-8.09,1.61-8.32.64-.36,5.51-.36,6.14,0,.49.28,1.94,8.47,1.58,9.63-.7,2.16-3.2,3.1-5.46,2.81-.54.53-1.15,1.02-1.82,1.39-.72.41-2.51,1.06-4.93,1.82,6.94.24,14.85-.04,21.72-1.13,2.25-.98,7.63-2.54,9.79-5.36,1.24-1.63.9-3.49.09-5.11-1.99-4.05-16.32-7.16-15.99-7.51.32-.34,7.11-.16,13.51,2.38,6.39,2.55,8.67,6.4,6.65,10.56-.07.15-.15.3-.24.44,2.2-1.56,3.51-3.49,3.51-5.85,0-14.59-67.98-16.44-69.06,0,0,.28.03.54.08.81h0c-1.63-5.19.09-7.11,4.11-9.55,15.88-9.61,70.98-8.05,70.98,9.14,0,14.45-34.26,16.23-54.21,13.84-7.23,1.94-15.34,3.82-19.59,4.16-.88.07-1.66.13-2.36.16,1.08,2.59,2.17,5.28,3.22,7.94,1.35,3.46,2.67,6.9,3.82,10.09l31.62,17.79s.6,1.6,1.6,4.41c.46,1.27,2.34,3.32,4.2,5.2.61-2.77,1.6-5.83,2.04-6,1.01-.4,8.76-.4,9.77,0,.77.3,3.1,9.08,2.51,10.31-1.95,4.09-12.83,4.09-14.78,0-.1-.19-.11-.59-.08-1.11-2.41-.79-4.86-1.68-4.86-1.68l-27.66-14.66c.02.19.05.36.06.52.1,1.07-.93,6.94-2.5,12.24-.23.82-.49,1.63-.76,2.42,7.05,14.46,41.42,19.51,64.33,14.11-2.15-.51-3.73-1.25-3.73-1.25,0,0,5.6-.5,10.51-3.2,4.91-2.71,8.11-8.82,3.7-16.33-4.41-7.53-24.22-12.83-23.43-13.24.81-.4,4.21.91,11.11,2.71,8.15,2.13,21.84,10.04,19.37,20.23-.3,1.31-.84,2.59-1.53,3.79,3.07-2.69,4.9-5.97,4.98-9.86.42-20.9-47.36-23.99-47.86-23.97,16.73-1.64,56.67,3.4,56.67,25.08,0,14.09-21.46,25.52-47.94,25.52-23.53,0-43.09-9.02-47.17-20.91-.59,1.46-1.23,2.75-1.89,3.7-1.09,1.61-2.82,2.77-4.78,3.58-1.64.68-3.48,1.14-5.22,1.44-.47,2.49-1.88,4.7-3.9,6.4-2.42,2.02-5.73,3.27-9.38,3.27s-6.96-1.25-9.38-3.27c-1.99-1.66-3.38-3.82-3.87-6.25-1.56-.3-2.7-.76-4.59-1.51-.06-.01-.11-.03-.16-.06-1.99-.82-3.74-1.98-4.84-3.6-1.36-1.99-2.62-5.35-3.63-8.81-1.57-5.3-2.6-11.17-2.51-12.24.07-.71.26-1.66.56-2.83l-32.02,16.96s-2.45.89-4.86,1.68c.02.46,0,.8-.08.99-1.95,4.26-12.84,4.26-14.79,0-.58-1.29,1.73-10.46,2.51-10.78,1.01-.41,8.76-.41,9.77,0,.46.18,1.49,3.58,2.1,6.54,1.84-1.88,3.7-3.89,4.14-5.15,1-2.81,1.6-4.41,1.6-4.41l36.5-20.53c.89-2.39,1.84-4.86,2.82-7.35.96-2.43,1.96-4.9,2.95-7.29-1.13,0-2.58-.05-4.45-.21-4.48-.39-13.49-2.61-20.9-4.78-19.94,2.41-54.27.63-54.27-13.83C27.52-2.16,82.63-3.73,98.52,5.89c4.01,2.43,5.73,4.35,4.1,9.54h0c.05-.26.09-.52.09-.8C101.61-1.82,33.63.03,33.63,14.63c0,2.81,1.83,5.01,4.82,6.7Zm21.88,71.94c10.67-1.43,26.34-9.72,26.8-21.69,7.22,16.68-14.73,22.49-26.8,21.69Zm129.38,0c-10.68-1.43-26.35-9.72-26.81-21.69-7.22,16.68,14.74,22.49,26.81,21.69ZM122.34,17.56c-.31.03-.65.05-1,.08-.49.04-.33-.48-.57-.25-1.1,1.09-6.47,13.5-11.31,25.81-4.04,10.28-7.62,20.27-7.89,23.31-.03.29.14,1.32.43,2.77,2.4,1.33,7.05,3.21,15.22,3.95,13.31,1.19,25.42-2.11,25.53-3.22.09-1.1-22.82,1.61-28.53-4.2-5.15-5.26,5.14-39.72,8.13-48.25"/>
    </g>
  </g>
</svg>