<?xml version="1.0" encoding="UTF-8"?>
<svg id="Layer_2" data-name="Layer 2" xmlns="http://www.w3.org/2000/svg" xmlns:xlink="http://www.w3.org/1999/xlink" viewBox="0 0 269 141">
  <defs>
    <style>
      .cls-1 {
        clip-path: url(#clippath-2);
      }

      .cls-2 {
        fill: #2f2a8b;
        fill-rule: evenodd;
      }

      .cls-3 {
        clip-path: url(#clippath-1);
      }

      .cls-4 {
        clip-path: url(#clippath);
      }

      .cls-5 {
        fill: none;
      }

      .cls-6 {
        clip-path: url(#clippath-3);
      }
    </style>
    <clipPath id="clippath">
      <rect class="cls-5" x="116.27" width="36" height="6.93"/>
    </clipPath>
    <clipPath id="clippath-1">
      <rect class="cls-5" y="10.93" width="25.6" height="12"/>
    </clipPath>
    <clipPath id="clippath-2">
      <rect class="cls-5" x="242.93" y="10.93" width="26.07" height="12"/>
    </clipPath>
    <clipPath id="clippath-3">
      <rect class="cls-5" x="113.6" y="102.93" width="42.67" height="38.07"/>
    </clipPath>
  </defs>
  <g id="Layer_1-2" data-name="Layer 1">
    <g>
      <path class="cls-2" d="m131.49,73.19h5.97v24.6h-5.97v-24.6Z"/>
      <path class="cls-2" d="m107.65,13.08c-3.14,0-5.69,2.56-5.69,5.7v12.11h65.05v-12.11c0-3.14-2.55-5.7-5.69-5.7h-53.67Z"/>
      <g class="cls-4">
        <path class="cls-2" d="m149.85,0h-30.74l-.04.11-2.11,6.55h35.06s-2.12-6.55-2.12-6.55l-.04-.11Z"/>
      </g>
      <path class="cls-2" d="m137.68,37.32v17.81h23.62c3.14,0,5.69-2.55,5.69-5.69v-12.12h-29.31Z"/>
      <path class="cls-2" d="m101.96,37.32v12.13c0,3.14,2.55,5.69,5.69,5.69h23.63v-17.82h-29.31Z"/>
      <path class="cls-2" d="m162.78,61.46c14.87,24.34,19.26,45.63,20.48,54.01.16,1.12.83,1.81,1.35,1.81.65,0,1.41-1.01,1.41-2.31,0-.06,0-.1,0-.16-1.46-25.88-9.26-43.64-16.03-56.94-1.88,1.94-4.4,3.26-7.21,3.59Z"/>
      <path class="cls-2" d="m98.96,57.87c-6.78,13.31-14.56,31.06-16.03,56.91-.05.83.2,1.63.68,2.13.16.17.42.38.72.38.29,0,.54-.19.7-.35.34-.34.57-.85.65-1.45,1.22-8.39,5.61-29.68,20.48-54.02-2.81-.34-5.33-1.66-7.21-3.59Z"/>
      <path class="cls-2" d="m95.54,26.73l-50.13,10.01v3.91h50.13v-13.92Z"/>
      <path class="cls-2" d="m173.41,26.73v13.92h50.13v-3.91l-50.13-10.02Z"/>
      <path class="cls-2" d="m55.43,12.18c-6.96,0-11.3,2.93-12.62,4.71,1.33,1.79,5.66,4.72,12.62,4.72s11.29-2.93,12.62-4.72c-1.33-1.79-5.67-4.71-12.62-4.71Z"/>
      <path class="cls-2" d="m31.95,12.18v13.48c0,1.67-1.28,3.04-2.9,3.2v20.53h9.94v-15.13c0-.09,0-.19,0-.29v-5.11h-.06s-.03,0-.03,0h-.04s-.04-.01-.04-.01h-.05s-.03-.02-.03-.02h-.04s-.05-.01-.05-.01h-.02s-.05-.02-.05-.02h-.03s-.04-.01-.04-.01l-.04-.02h-.06s0-.01,0-.01h-.04s-.05-.03-.05-.03h0l-.06-.02-.14-.06h0l-.07-.03-.14-.06h0l-.13-.07h-.02s-.06-.04-.06-.04h0l-.06-.04-.13-.08h0c-.06-.05-.13-.09-.18-.13l-.05-.05c-.14-.11-.27-.23-.39-.38h0c-.06-.08-.11-.16-.17-.23l-.02-.03-.03-.04-.02-.03-.03-.04h0s-.04-.07-.04-.07h0s-.04-.07-.04-.07l-.07-.13h0s-.03-.07-.03-.07h-.01s-.03-.07-.03-.07h0c-.03-.07-.06-.15-.09-.22l-.02-.06h-.01s-.02-.07-.02-.07h0s-.02-.06-.02-.06v-.02s-.02-.05-.02-.05v-.03s-.02-.04-.02-.04v-.03s-.01-.04-.01-.04v-.05s-.02-.03-.02-.03v-.06s-.02-.02-.02-.02v-.05s-.02-.07-.02-.07v-.04s0-.02,0-.02l-.02-.15h0s0-.07,0-.07v-13.65h-4.15v-.02Z"/>
      <g class="cls-3">
        <path class="cls-2" d="m12.61,12.18C5.66,12.18,1.32,15.1,0,16.89c1.33,1.79,5.67,4.72,12.62,4.72s11.29-2.93,12.62-4.72c-1.33-1.79-5.67-4.71-12.62-4.71Z"/>
      </g>
      <path class="cls-2" d="m213.52,12.18c-6.95,0-11.29,2.93-12.62,4.71,1.33,1.79,5.67,4.72,12.62,4.72s11.3-2.93,12.62-4.72c-1.32-1.79-5.67-4.71-12.62-4.71Z"/>
      <path class="cls-2" d="m232.86,12.18v13.71s-.02.14-.02.14v.07s-.01.03-.01.03v.06s-.01,0-.01,0l-.02.06v.03s-.02.05-.02.05h-.01c-.29,1.36-1.43,2.39-2.82,2.52v20.52h9.94v-20.52h-.07s-.01,0-.01,0h-.06s-.02,0-.02,0l-.06-.02h-.07s-.03-.02-.03-.02l-.05-.02h-.02s-.06-.02-.06-.02h0l-.15-.04h0c-.07-.02-.14-.04-.21-.07l-.07-.03c-.16-.06-.31-.14-.46-.22l-.06-.04-.13-.08-.06-.05c-.8-.58-1.32-1.53-1.32-2.6v-13.48h-4.13Z"/>
      <g class="cls-1">
        <path class="cls-2" d="m256.34,12.18c-6.95,0-11.3,2.93-12.62,4.71,1.33,1.79,5.67,4.72,12.62,4.72s11.29-2.93,12.62-4.72c-1.33-1.79-5.67-4.71-12.62-4.71Z"/>
      </g>
      <g class="cls-6">
        <path class="cls-2" d="m154.96,140.99v-37.22h-12.23v11.78c0,1.65-1.34,2.99-2.99,2.99h-10.54c-1.65,0-2.99-1.34-2.99-2.99v-11.79h-12.23v37.21h40.98Z"/>
      </g>
      <path class="cls-2" d="m134.47,61.56h-11.61v3c0,1.46,1,2.65,2.23,2.65h18.77c1.23,0,2.23-1.19,2.23-2.65v-3h-11.63Z"/>
      <path class="cls-2" d="m132.19,103.77h4.57v8.8h-4.57v-8.8Z"/>
    </g>
  </g>
</svg>