<?xml version="1.0" encoding="UTF-8"?>
<svg id="Layer_2" data-name="Layer 2" xmlns="http://www.w3.org/2000/svg" xmlns:xlink="http://www.w3.org/1999/xlink" viewBox="0 0 184.96 201">
  <defs>
    <style>
      .cls-1 {
        clip-path: url(#clippath-2);
      }

      .cls-2 {
        clip-path: url(#clippath-1);
      }

      .cls-3 {
        clip-path: url(#clippath);
      }

      .cls-4 {
        fill: none;
      }

      .cls-5 {
        fill: #2f2a8b;
      }
    </style>
    <clipPath id="clippath">
      <rect class="cls-4" x="34.67" width="150.29" height="172.33"/>
    </clipPath>
    <clipPath id="clippath-1">
      <rect class="cls-4" y="119" width="46.67" height="82"/>
    </clipPath>
    <clipPath id="clippath-2">
      <rect class="cls-4" x="38.67" y="179" width="37.33" height="22"/>
    </clipPath>
  </defs>
  <g id="Layer_1-2" data-name="Layer 1">
    <g>
      <path class="cls-5" d="m134.72,36.73c0,1.78-.91,3.26-2.14,3.66.21.07.43.11.65.11,1.54,0,2.79-1.69,2.79-3.77s-1.25-3.77-2.79-3.77c-.22,0-.44.04-.65.11,1.22.4,2.14,1.88,2.14,3.66Z"/>
      <path class="cls-5" d="m122.24,45.13c0-2.58-1.45-4.7-3.31-4.97-.13-.02-.26-.03-.39-.03-2.04,0-3.7,2.23-3.7,4.99s1.66,4.99,3.7,4.99c.14,0,.26-.01.39-.03,1.86-.26,3.31-2.38,3.31-4.96Z"/>
      <path class="cls-5" d="m120.75,66.18c0-2.35-1.44-4.28-3.28-4.52-.13-.02-.26-.03-.39-.03-2.03,0-3.67,2.04-3.67,4.55s1.64,4.55,3.67,4.55c.13,0,.26-.01.39-.03,1.84-.24,3.28-2.17,3.28-4.53Z"/>
      <path class="cls-5" d="m119.86,84.52c0-2.81-2.02-5.12-4.6-5.4-.18-.02-.35-.03-.54-.03-2.84,0-5.14,2.43-5.14,5.43s2.3,5.43,5.14,5.43c.18,0,.36-.01.54-.03,2.59-.28,4.6-2.59,4.6-5.4Z"/>
      <path class="cls-5" d="m131.73,68.86c0,2.81,1.58,5.12,3.6,5.41.14.02.28.03.42.03,2.22,0,4.03-2.43,4.03-5.44s-1.8-5.43-4.03-5.43c-.14,0-.28.01-.42.03-2.03.29-3.6,2.59-3.6,5.4Z"/>
      <path class="cls-5" d="m130.23,94.71c0,2.88,2.18,5.23,4.93,5.41.12.01.23.02.35.02,2.92,0,5.28-2.43,5.28-5.43s-2.36-5.43-5.28-5.43c-.11,0-.23.01-.35.02-2.75.19-4.93,2.54-4.93,5.42Z"/>
      <g class="cls-3">
        <path class="cls-5" d="m168.58,167.38l-9.69-2.23-5.81-4.31-4.45-6.54-8.91-2.32-3.68.09-2.53-52.1c-2.29-.6-3.98-2.72-3.98-5.26,0-2.35,1.45-4.34,3.48-5.1l-.77-15.87c.25.07.51.11.78.11.09,0,.18-.01.28-.02-1.42-.84-2.41-2.75-2.41-4.97s.99-4.13,2.41-4.97c-.09-.01-.18-.02-.28-.02-.44,0-.85.11-1.24.3l-.47-9.65c-.38-.09-.74-.28-1.06-.53.32.16.67.24,1.03.24,1.69,0,3.06-1.85,3.06-4.14s-1.37-4.14-3.06-4.14c-.36,0-.71.09-1.03.24.2-.16.41-.29.64-.39l-.28-5.77v-.02c.24.1.51.17.79.17,1.42,0,2.56-1.55,2.56-3.46s-1.15-3.46-2.56-3.46c-.3,0-.59.07-.86.2-.08.04-.16.09-.24.14l-.14-2.69c-.06-1.3-.94-2.37-2.13-2.73v-8.19h-.65v8.07c-.07,0-.15-.01-.22-.01h-1.34V.04h-1.3v28.02h-1.06c-.07,0-.14,0-.21.01V7.51h-.65v20.68c-1.19.36-2.07,1.43-2.13,2.73l-.45,9.3c1.71.44,3.01,2.46,3.01,4.91,0,2.66-1.55,4.83-3.49,4.98l-.57,11.74c1.48.58,2.56,2.3,2.56,4.33,0,2.22-1.29,4.07-2.98,4.47l-.43,8.88c-.08,0-.15,0-.23.02,1.81.84,3.07,2.74,3.07,4.97s-1.39,4.31-3.33,5.08l-2.95,60.7-1.71-.41-3.47,3.24-6.76,2.97-5.96,8.47-9.97,2.08-2.23,2.66h-49.21v2.58h149.6v-2.58h-15.2l-1.16-1.94Zm-45.19-15.01l-7.02-1.67.38-7.85,6.64-6.58v16.1Zm0-17.94l-6.54,6.49.69-14.27,5.85,5.81v1.96Zm0-3.8l-5.76-5.72v-.04l5.76-5.77v11.52Zm0-13.36l-5.67,5.67.62-12.71,5.05,5.05v1.99Zm0-3.83l-4.55-4.55,4.55-4.77v9.32Zm0-11.21l-4.91,5.15.58-11.83,4.33,4.55v2.13Zm0-4.02l-4.19-4.4,4.19-4.42v8.81Zm0-10.71l-4.16,4.38.12-2.52c1.96-.52,3.43-2.31,3.57-4.49l.47.49v2.14Zm0-4.04l-.81-.85c-.48-1.22-1.4-2.19-2.56-2.69l-.05-.05,3.42-3.49v7.09Zm0-8.95l-3.48,3.56.38-7.79c.24-.06.47-.16.69-.29l2.42,2.47v2.05Zm0-3.91l-1.43-1.46c.6-.76.97-1.79.97-2.94,0-.64-.11-1.24-.32-1.78l.78-.79v6.98Zm0-8.84l-1.44,1.47c-.36-.44-.79-.77-1.28-.98l.25-5.07,2.47,2.53v2.05Zm0-3.92l-2.39-2.44v-.21s2.39-2.65,2.39-2.65v5.3Zm0-7.26l-2.27,2.54.16-3.41c.82-.07,1.55-.53,2.11-1.24v2.11Zm0-10.3l-.72.82c-.29-.21-.61-.36-.94-.46l.21-4.4,1.45,1.65v2.39Zm0-4.36l-1.36-1.55.16-3.35c.03-.65.55-1.16,1.2-1.2v6.1Zm.43,2.65h.16l.45.52-.61.7v-1.21Zm0,10.18l.6.67-.6.68v-1.35Zm0,11.72h.32l.25.26-.57.58v-.84Zm0,12.44l.57.58-.57.58v-1.16Zm0,12.91l.58.61-.35.36h-.23v-.98Zm0,14.73l.58.61-.22.23h-.36v-.84Zm0,15.16l.28.28h-.28v-.28Zm.13-1.72h2.71l-1.35,1.36-1.36-1.36Zm2.58,4.43h-2.45l1.23-1.23,1.22,1.23Zm-2.71-2h.41l-.41.41v-.41Zm0,16.48l.13.12h-.13v-.12Zm0,.55h.55l-.55.55v-.55Zm1.48.92l1.09,1.08h-2.18l1.09-1.08Zm1.48,17.94l-2.96.08v-1.9h2.96v1.82Zm0-2.26h-2.96v-2h2.96v2Zm0-2.43h-2.96v-2h2.96v2Zm0-2.44h-2.96v-1.99h2.96v1.99Zm0-2.43h-2.96v-1.99h2.96v1.99Zm0-2.43h-2.96v-1.99h2.96v1.99Zm0-2.43h-2.96v-2h2.96v2Zm0-3.89l-.55-.55h.55v.55Zm0-.98h-.12l.12-.12v.12Zm0-1.96l-1.48,1.47-1.48-1.47v-.04h2.96v.04Zm0-.47h-2.96v-2h2.96v2Zm0-2.44h-2.96v-1.99h2.96v1.99Zm0-2.43h-2.96v-1.99h2.96v1.99Zm0-2.43h-2.96v-2h2.96v2Zm0-2.43h-2.96v-2h2.96v2Zm0-4.03l-.41-.41h.41v.41Zm0-.84h-.28l.28-.28v.28Zm0-2.44h-2.96v-1.99h2.96v1.99Zm0-2.43h-2.96v-1.99h2.96v1.99Zm0-2.43h-2.96v-1.99h2.96v1.99Zm0-2.43h-2.96v-2h2.96v2Zm0-2.43h-2.96v-.17l1.48-1.55,1.48,1.55v.17Zm-2.27-4.43h1.57l-.78.82-.79-.82Zm2.27,2h-.36l-.22-.23.58-.61v.84Zm0-2.73l-.29.3h-2.39l-.29-.3v-1.7h2.96v1.7Zm0-2.14h-2.96v-1.99h2.96v1.99Zm0-2.43h-2.96v-1.99h2.96v1.99Zm0-2.43h-2.96v-1.99h2.96v1.99Zm0-2.43h-2.96v-.29l1.48-1.56,1.48,1.56v.29Zm-2.13-4.43h1.3l-.65.69-.65-.69Zm2.13,2h-.23l-.35-.36.58-.61v.98Zm0-2.88l-.42.44h-2.13l-.42-.44v-1.56h2.96v1.56Zm0-1.99h-2.96v-2h2.96v2Zm0-2.44h-2.96v-1.99h2.96v1.99Zm0-2.43h-2.96v-1.14l.85-.86h1.27l.85.86v1.14Zm-1.69-2.43l.21-.21.21.21h-.42Zm1.69-.56l-.57-.58.57-.58v1.16Zm0-3.03l-1.14,1.16h-.69l-1.14-1.16v-.84h2.96v.84Zm0-1.28h-2.96v-2h2.96v2Zm0-2.43h-2.96v-2h2.96v2Zm0-2.43h-2.96v-1.72l.27-.28h2.42l.27.28v1.72Zm-2.27-2.44l.79-.8.79.8h-1.58Zm2.27-1.16l-.57-.58.25-.26h.32v.84Zm0-3.03l-1.48,1.52-1.48-1.52v-.24h2.96v.24Zm0-.68h-2.96v-2h2.96v2Zm0-2.43h-2.96v-2h2.96v2Zm0-2.43h-2.96v-.69l1.18-1.31h.61l1.18,1.31v.69Zm-1.6-4.43h.24l-.12.14-.13-.14Zm1.6,1.79l-.6-.68.6-.67v1.35Zm0-3.31l-.97,1.08h-1.03l-.67-.75c.14-.39.23-.81.29-1.24h2.38v.92Zm0-1.35h-2.34c0-.1.02-.2.02-.3,0-.6-.09-1.17-.24-1.7h2.57v1.99Zm0-2.43h-2.72c-.07-.18-.15-.35-.24-.52v-.72l.66-.75h1.64l.66.75v1.24Zm-1.92-2.43l.44-.5.44.5h-.88Zm1.92-.79l-.61-.7.45-.52h.16v1.21Zm0-3.37l-1.48,1.68-1.48-1.68v-.28h2.96v.28Zm0-.71h-2.96v-2h2.96v2Zm0-2.43h-2.96v-2h2.96v2Zm0-2.44h-2.96v-1.03h2.96v1.03Zm.43-1.02c.65.04,1.17.55,1.2,1.2l.16,3.35-1.36,1.55v-6.1Zm0,8.08l1.45-1.65.29,6.02-1.74-1.98v-2.39Zm0,4.36l1.8,2.05-1.8,2.01v-4.05Zm0,6.01l1.93-2.16.05.95c-.61.76-.99,1.84-.99,3.05,0,.73.14,1.41.39,2.01l-1.37-1.53v-2.32Zm0,4.28l2.38,2.65v.21s-2.38,2.44-2.38,2.44v-5.3Zm0,7.17l2.47-2.53.36,7.47-2.83-2.9v-2.05Zm0,3.92l2.63,2.69c-.28.63-.46,1.36-.52,2.14l-2.11,2.16v-6.98Zm0,8.84l2.23-2.28c.18.87.52,1.65.98,2.26l.27,5.63-3.48-3.56v-2.05Zm0,3.91l3.42,3.49-3.42,3.6v-7.09Zm0,8.98l3.65-3.85.43,8.77c-.31.17-.61.36-.88.59l-3.2-3.37v-2.14Zm0,4.04l2.32,2.45c-.56.82-.89,1.81-.89,2.88,0,.59.1,1.15.29,1.68l-1.72,1.81v-8.81Zm0,10.7l2.35-2.47c.54.78,1.3,1.39,2.17,1.73l.39,8.02-4.91-5.15v-2.13Zm0,4.02l4.55,4.77-4.55,4.55v-9.32Zm0,11.16l5.05-5.05.62,12.71-5.67-5.67v-1.99Zm0,3.83l5.76,5.77v.04l-5.76,5.72v-11.52Zm0,13.36l5.85-5.81.69,14.27-6.54-6.49v-1.96Zm0,19.83v-16.03l6.64,6.58.45,9.27-7.08.18Z"/>
      </g>
      <path class="cls-5" d="m135.26,50.09c0,2.13-1.09,3.9-2.56,4.38.26.08.52.13.79.13,1.84,0,3.34-2.02,3.34-4.51s-1.49-4.51-3.34-4.51c-.27,0-.53.05-.79.13,1.47.47,2.56,2.25,2.56,4.38Z"/>
      <path class="cls-5" d="m38.41,134.74c-.04.15-.09.28-.16.41.04.25.07.49.11.75.79.13,1.63.23,2.41.31-.05-.28-.05-.57.03-.85.28-1.07,1.36-1.71,2.43-1.43,1.07.28,1.71,1.36,1.43,2.43-.06.2-.15.39-.26.56.48.26.91.59,1.27.98l1.57-3.7c.18-.7-.24-1.41-.94-1.59l-2.89-.75.18-.68-1.55-.4.28-1.08-2.47-.64-.28,1.08-1.55-.41-.18.69-.52-.14c.19.8.37,1.64.54,2.53.51.48.75,1.21.56,1.94Z"/>
      <path class="cls-5" d="m41.17,135.89l.2-.79,2.89.75-.2.79-2.89-.75Z"/>
      <path class="cls-5" d="m48.23,130.32c.46.12.94-.16,1.06-.63l1.6-6.2c.12-.46-.16-.94-.62-1.06l-4.04-1.05.26-.97-5.81-1.51-.25.97-4.04-1.05c-.46-.12-.94.16-1.06.63l-.85,3.3c.71,1.19,1.39,2.67,1.99,4.51l11.77,3.06Zm-10.43-10.24l10.62,2.76-1.61,6.24-10.62-2.76,1.61-6.24Z"/>
      <path class="cls-5" d="m29.89,109.83c-2.29.03-4.28-.25-5.61-.76.98-.03,2.02-.1,3.09-.26,5.11-.72,9.06-2.69,8.81-4.4-.05-.38-.31-.7-.73-.98-1.47-.99-4.97-1.35-8.95-.79-.18.02-.34.05-.52.08-1.99-1.48-4.55-2.21-7.2-1.83-5.34.76-9.07,5.71-8.31,11.06.34,2.45,1.57,4.56,3.31,6.05h12.73c2.3-1.97,3.63-4.97,3.38-8.17Z"/>
      <g class="cls-2">
        <path class="cls-5" d="m6,146.45c.43.1.86.18,1.31.25v48.32c0,2.97,2.4,5.38,5.37,5.38s5.37-2.41,5.37-5.38v-39.26h2.02v39.26c0,2.97,2.41,5.38,5.37,5.38s5.38-2.41,5.38-5.38v-52.99l1.77.81c2.98,1.36,8.33,1.71,9.38,1.76.06,0,.12,0,.18,0,1.83,0,3.37-1.44,3.46-3.3.1-1.92-1.37-3.56-3.29-3.66-1.42-.08-3.52-.3-5.11-.64-.35-2.65-.79-5.01-1.3-7.04-2.46-9.74-6.6-10.8-8.62-10.67H10.72c-.96-.04-2.55.16-4.24,1.45-.04.03-.07.07-.11.1-3.62,2.85-5.69,9.16-6.31,19.29-.1,1.62.51,3.14,1.7,4.28,1.05,1,2.56,1.64,4.24,2.03Z"/>
      </g>
      <path class="cls-5" d="m98.7,40.49c0-.16-1.1-.3-4.35-.3-2.75,0-6.16.02-7.13.19l-.02-.27c-.03-.32-.22-.56-.45-.56s-.42.24-.44.56l-.03.3c-.38-.13-1.26-.22-3.26-.22-3.24,0-8.22.23-8.22.51,0,.16,1.1.3,4.34.3,2.72,0,6.08-.02,7.1-.19l-.12,1.49h-1.86c0,.37.03.73.08,1.07h-8.83c-.25-.51-.77-.86-1.38-.86h-6.92c-.61,0-1.13.35-1.38.86h-8.83c.05-.34.08-.7.08-1.07h-1.86l-.12-1.52c.39.13,1.27.21,3.22.21,3.24,0,8.22-.23,8.22-.51,0-.16-1.1-.3-4.34-.3-2.76,0-6.16.02-7.14.19l-.02-.27c-.03-.32-.22-.56-.44-.56s-.42.24-.45.56l-.02.3c-.38-.13-1.26-.22-3.26-.22-3.24,0-8.22.23-8.22.51,0,.16,1.1.3,4.34.3,2.72,0,6.08-.02,7.1-.19l-.12,1.49h-1.86c0,2.41,1.11,4.37,2.48,4.37.64,0,1.22-.43,1.66-1.14l11.22,2.68-1.89.92c-1.33.65-2.35,1.83-2.79,3.24l-1.54,4.96c-.07.24-.3.41-.55.41h-1.88v1.45h1.88c.9,0,1.67-.58,1.94-1.43l1.53-4.95c.32-1.04,1.06-1.9,2.04-2.38l2.73-1.32v.39c0,.42.34.77.77.77h.66v.49h-2.12c-.41,0-.73.33-.73.74v2.43c0,.41.33.73.73.73h2.12v.61h.74v-.61h2.12c.41,0,.73-.33.73-.73v-2.43c0-.41-.33-.74-.73-.74h-2.12v-.49h.5c.42,0,.77-.34.77-.77v-.39l2.73,1.32c.97.47,1.72,1.34,2.04,2.38l1.53,4.95c.27.85,1.04,1.43,1.94,1.43h1.88v-1.45h-1.88c-.26,0-.48-.17-.55-.41l-1.54-4.96c-.44-1.42-1.45-2.6-2.79-3.24l-1.89-.92,11.22-2.68c.44.7,1.02,1.14,1.66,1.14,1.37,0,2.48-1.96,2.48-4.37h-1.86l-.13-1.52c.4.13,1.28.21,3.23.21,3.24,0,8.22-.23,8.22-.51Zm-26.78,12.23c0,.64-.52,1.16-1.16,1.16s-1.16-.52-1.16-1.16.52-1.16,1.16-1.16,1.16.52,1.16,1.16Z"/>
      <path class="cls-5" d="m70.15,52.72c0,.34.28.62.62.62s.62-.28.62-.62-.28-.62-.62-.62-.62.28-.62.62Z"/>
      <path class="cls-5" d="m68.81,61.49h.46v21.06h-.46v-21.06Z"/>
      <path class="cls-5" d="m71.54,65.89h.46v21.06h-.46v-21.06Z"/>
      <path class="cls-5" d="m70.18,69.83h.45v30.22h-.45v-30.22Z"/>
      <g class="cls-1">
        <path class="cls-5" d="m66.85,183.18h-2.09c-.54-2.18-3.79-3.82-7.84-3.82s-7.3,1.64-7.84,3.82h-2.09c-4.55,0-8.28,3.73-8.28,8.29v4.93c0,4.56,3.72,4.18,8.28,4.18h19.86c4.55,0,8.28.38,8.28-4.18v-4.93c0-4.56-3.72-8.29-8.28-8.29Zm-9.93-2.51c3.35,0,5.82,1.22,6.46,2.51h-12.92c.64-1.29,3.11-2.51,6.46-2.51Zm-6.54,15.18h-1.31v-7.28h1.31v7.28Zm14.39,0h-1.3v-7.28h1.3v7.28Zm.98-8.41h-17.67v-1.02h.98v-1.19h1.31v1.19h13.09v-1.19h1.3v1.19h.98v1.02Z"/>
      </g>
    </g>
  </g>
</svg>