<?xml version="1.0" encoding="UTF-8"?>
<svg id="Layer_2" data-name="Layer 2" xmlns="http://www.w3.org/2000/svg" xmlns:xlink="http://www.w3.org/1999/xlink" viewBox="0 0 185 185">
  <defs>
    <style>
      .cls-1 {
        clip-path: url(#clippath-2);
      }

      .cls-2 {
        fill: #2f337d;
      }

      .cls-3 {
        clip-path: url(#clippath-1);
      }

      .cls-4 {
        clip-path: url(#clippath-4);
      }

      .cls-5 {
        clip-path: url(#clippath);
      }

      .cls-6 {
        fill: none;
      }

      .cls-7 {
        clip-path: url(#clippath-3);
      }
    </style>
    <clipPath id="clippath">
      <rect class="cls-6" y="58.38" width="18.6" height="41.33"/>
    </clipPath>
    <clipPath id="clippath-1">
      <rect class="cls-6" width="18.6" height="39.71"/>
    </clipPath>
    <clipPath id="clippath-2">
      <rect class="cls-6" x="166.6" y="58.38" width="18.4" height="41.33"/>
    </clipPath>
    <clipPath id="clippath-3">
      <rect class="cls-6" x="166.6" width="18.4" height="39.71"/>
    </clipPath>
    <clipPath id="clippath-4">
      <rect class="cls-6" x="41.27" y="159.71" width="102.67" height="25.29"/>
    </clipPath>
  </defs>
  <g id="Layer_1-2" data-name="Layer 1">
    <g>
      <g class="cls-5">
        <path class="cls-2" d="m3.13,74.55v17.89c0,3.3,2.67,5.97,5.97,5.97s5.96-2.67,5.96-5.97v-17.89h-2.98v-8.95h5.96v-5.96H.15v5.96h5.96v8.95h-2.98Z"/>
      </g>
      <g class="cls-3">
        <path class="cls-2" d="m6.11,14.91h-2.98v17.89c0,3.3,2.67,5.96,5.97,5.96s5.96-2.67,5.96-5.96V14.91h-2.98V5.96h5.96V0H.15v5.96h5.96v8.95Z"/>
      </g>
      <g class="cls-1">
        <path class="cls-2" d="m167.15,65.6h5.96v8.95h-2.98v17.89c0,3.3,2.67,5.97,5.96,5.97s5.96-2.67,5.96-5.97v-17.89h-2.98v-8.95h5.97v-5.96h-17.9v5.96Z"/>
      </g>
      <g class="cls-7">
        <path class="cls-2" d="m167.15,0v5.96h5.96v8.95h-2.98v17.89c0,3.3,2.67,5.96,5.96,5.96s5.96-2.67,5.96-5.96V14.91h-2.98V5.96h5.97V0h-17.9Z"/>
      </g>
      <path class="cls-2" d="m110.49,86.48c1.65,0,2.98-1.33,2.98-2.98v-14.91h-9.02c1.89,2.5,3.06,5.58,3.06,8.95s-1.17,6.45-3.06,8.94h6.04Z"/>
      <path class="cls-2" d="m122.42,80.52c1.65,0,2.98-1.33,2.98-2.98v-8.95h-5.96v11.93h2.98Z"/>
      <path class="cls-2" d="m92.59,86.48c4.93,0,8.95-4.01,8.95-8.94s-4.02-8.95-8.95-8.95-8.94,4.02-8.94,8.95,4.01,8.94,8.94,8.94Zm0-11.93c1.65,0,2.98,1.34,2.98,2.98s-1.34,2.98-2.98,2.98-2.98-1.33-2.98-2.98,1.33-2.98,2.98-2.98Z"/>
      <path class="cls-2" d="m164.17,80.87l-32.34-16.17-.46,1.39v6.62l32.8,16.4v-8.24Z"/>
      <path class="cls-2" d="m164.17,32.45v-8.24l-32.74,16.37,5.49,5.49,27.24-13.62Z"/>
      <path class="cls-2" d="m71.72,68.59v14.91c0,1.65,1.34,2.98,2.98,2.98h6.04c-1.9-2.49-3.06-5.57-3.06-8.94s1.17-6.45,3.06-8.95h-9.03Z"/>
      <path class="cls-2" d="m126.23,62.63l3.97-11.93H54.98l3.97,11.93h67.27Z"/>
      <path class="cls-2" d="m121.18,38.77h-57.17l-5.96,5.96h69.09l-5.96-5.96Z"/>
      <path class="cls-2" d="m62.78,80.52h2.98v-11.93h-5.96v8.95c0,1.65,1.34,2.98,2.98,2.98Z"/>
      <path class="cls-2" d="m53.83,66.09l-.46-1.39-32.34,16.17v8.24l32.8-16.4v-6.62Z"/>
      <path class="cls-2" d="m53.76,40.58L21.03,24.21v8.24l27.24,13.62,5.49-5.49Z"/>
      <path class="cls-2" d="m116.85,96.92l5.16-2.98,44.73,77.54-5.17,2.98-44.73-77.54Z"/>
      <path class="cls-2" d="m128.77,90.95l5.18-2.96,47.71,83.5-5.18,2.96-47.71-83.5Z"/>
      <path class="cls-2" d="m18.44,171.47l44.73-77.54,5.17,2.98-44.73,77.54-5.17-2.98Z"/>
      <path class="cls-2" d="m3.52,171.48l47.71-83.49,5.18,2.96L8.7,174.45l-5.18-2.96Z"/>
      <g class="cls-4">
        <path class="cls-2" d="m46.2,159.71l-4.22,4.21c13.95,13.95,32.28,20.93,50.61,20.93s36.66-6.98,50.61-20.93l-4.21-4.21c-25.58,25.57-67.21,25.57-92.79,0Z"/>
      </g>
      <path class="cls-2" d="m58.86,147.06l-4.22,4.21c10.14,10.15,23.61,15.72,37.95,15.72s27.82-5.58,37.96-15.72l-4.22-4.22c-9.02,9.02-20.99,13.97-33.74,13.97s-24.72-4.96-33.73-13.97Z"/>
      <path class="cls-2" d="m71.51,134.41l-4.22,4.22c6.98,6.97,16.14,10.46,25.3,10.46s18.33-3.49,25.3-10.46l-4.21-4.22c-11.63,11.63-30.55,11.63-42.17,0Z"/>
      <path class="cls-2" d="m92.59,131.21c4.78,0,9.27-1.86,12.65-5.24l-4.22-4.21c-4.51,4.51-12.36,4.51-16.86,0l-4.22,4.21c3.38,3.38,7.87,5.24,12.65,5.24Z"/>
    </g>
  </g>
</svg>