<?xml version="1.0" encoding="UTF-8"?>
<svg id="Layer_2" data-name="Layer 2" xmlns="http://www.w3.org/2000/svg" xmlns:xlink="http://www.w3.org/1999/xlink" viewBox="0 0 146.99 148">
  <defs>
    <style>
      .cls-1 {
        clip-path: url(#clippath-2);
      }

      .cls-2 {
        clip-path: url(#clippath-1);
      }

      .cls-3 {
        clip-path: url(#clippath);
      }

      .cls-4 {
        fill: none;
      }

      .cls-5 {
        fill: #2f2a8b;
      }
    </style>
    <clipPath id="clippath">
      <rect class="cls-4" x="16.65" width="48" height="12.08"/>
    </clipPath>
    <clipPath id="clippath-1">
      <rect class="cls-4" y="14.67" width="82.3" height="133.33"/>
    </clipPath>
    <clipPath id="clippath-2">
      <rect class="cls-4" x="71.31" y="72.09" width="75.68" height="75.91"/>
    </clipPath>
  </defs>
  <g id="Layer_1-2" data-name="Layer 1">
    <g>
      <path class="cls-5" d="m127.43,88.34l-5.09-2.6c-.7-.36-1.51-.42-2.26-.18s-1.36.77-1.72,1.47l-12.99,25.56c-.46.92-1.35,1.51-2.37,1.57-1.03.07-1.98-.4-2.56-1.24l-5.12-7.47c-.45-.65-1.13-1.09-1.9-1.23-.78-.14-1.56.03-2.21.47l-4.7,3.25c-1.34.93-1.68,2.78-.76,4.12l15.24,22.21c.78,1.14,2.07,1.77,3.45,1.67,1.38-.09,2.57-.88,3.19-2.11l21.09-41.51c.74-1.46.16-3.25-1.29-3.99"/>
      <g class="cls-3">
        <path class="cls-5" d="m62.52,5.71c0-3.15-2.67-5.71-5.95-5.71h-30.88c-3.28,0-5.95,2.56-5.95,5.71,0,2.17-.79,4.16-2.1,5.72h46.99c-1.31-1.56-2.1-3.55-2.1-5.72"/>
      </g>
      <g class="cls-2">
        <path class="cls-5" d="m60.25,41.49H22.01c-.91,0-1.64-.73-1.64-1.64s.73-1.64,1.64-1.64h38.24c.9,0,1.64.73,1.64,1.64s-.73,1.64-1.64,1.64Zm0,27.81H22.01c-.91,0-1.64-.73-1.64-1.64s.73-1.64,1.64-1.64h38.24c.9,0,1.64.73,1.64,1.64s-.73,1.64-1.64,1.64Zm0,27.81H22.01c-.91,0-1.64-.73-1.64-1.64s.73-1.64,1.64-1.64h38.24c.9,0,1.64.73,1.64,1.64s-.73,1.64-1.64,1.64Zm0,27.81H22.01c-.91,0-1.64-.73-1.64-1.64s.73-1.64,1.64-1.64h38.24c.9,0,1.64.73,1.64,1.64s-.73,1.64-1.64,1.64Zm7.81-14.85c0-12.42,5.51-23.58,14.2-31.14V20.43c0-3.15-2.67-5.71-5.95-5.71H5.95c-3.29,0-5.95,2.56-5.95,5.71v121.86c0,3.15,2.67,5.71,5.95,5.71h70.35c3.28,0,5.95-2.56,5.95-5.71v-1.09c-8.69-7.56-14.2-18.72-14.2-31.14"/>
      </g>
      <path class="cls-5" d="m102.63,29.76v26.03h13.06v-26.03c0-1.43,1.17-2.59,2.61-2.59h5.6l-14.74-24.57-14.74,24.57h5.6c1.44,0,2.61,1.16,2.61,2.59"/>
      <g class="cls-1">
        <path class="cls-5" d="m131.64,93.82l-21.09,41.51c-1.16,2.27-3.36,3.73-5.9,3.9-.16.01-.33.02-.48.02-2.35,0-4.52-1.14-5.88-3.1l-15.24-22.2c-1.95-2.84-1.23-6.74,1.6-8.69l4.7-3.24c1.37-.95,3.03-1.3,4.66-1,1.64.31,3.06,1.23,4,2.6l4.75,6.92,12.68-24.97c.76-1.49,2.04-2.59,3.63-3.11s3.27-.38,4.75.38l5.09,2.6c3.06,1.56,4.28,5.33,2.72,8.4Zm-22.47-21.7c-20.85,0-37.82,17.02-37.82,37.94s16.97,37.94,37.82,37.94,37.82-17.02,37.82-37.94-16.96-37.94-37.82-37.94"/>
      </g>
    </g>
  </g>
</svg>