<?xml version="1.0" encoding="UTF-8"?>
<svg id="Layer_2" data-name="Layer 2" xmlns="http://www.w3.org/2000/svg" xmlns:xlink="http://www.w3.org/1999/xlink" viewBox="0 0 115.94 143">
  <defs>
    <style>
      .cls-1 {
        clip-path: url(#clippath);
      }

      .cls-2 {
        fill: none;
      }

      .cls-3 {
        fill: #2f2a8b;
      }
    </style>
    <clipPath id="clippath">
      <rect class="cls-2" width="115.94" height="143"/>
    </clipPath>
  </defs>
  <g id="Layer_1-2" data-name="Layer 1">
    <g class="cls-1">
      <path class="cls-3" d="m48.07,83.85l32.13-32.36c.33-.32.72-.57,1.15-.75s.88-.27,1.34-.27.92.08,1.35.26c.43.18.82.42,1.16.74.33.33.59.72.77,1.16.18.43.27.89.27,1.36,0,.47-.08.93-.27,1.36-.18.44-.43.82-.76,1.16l-35.05,35.31c-.69.7-1.52,1.05-2.5,1.05h-.02c-.97,0-1.8-.34-2.49-1.03-.14-.15-.27-.3-.39-.46l-14.43-17.27c-.28-.39-.47-.81-.59-1.27-.11-.46-.13-.93-.05-1.4s.23-.91.48-1.31c.25-.41.56-.74.94-1.02.39-.28.81-.47,1.27-.58.46-.11.92-.13,1.39-.05.47.08.9.24,1.3.49.4.25.73.57,1.01.96l11.99,13.92Zm67.71-2.67c.09,10.6-6.04,23.12-17.24,35.23-4.83,5.21-10.12,9.89-15.87,14.04l-.24.17c-.1.05-.2.12-.29.2l-.23.19c-6.85,4.97-14.26,8.88-22.23,11.7l-1.01.33-1.02-.32c-2.43-.78-4.81-1.68-7.14-2.71-.15-.08-.29-.15-.44-.2l-.2-.08c-11.91-5.57-22.41-13.12-31.52-22.64-4.77-4.9-8.85-10.31-12.24-16.27l-.13-.25c-.05-.11-.11-.21-.19-.31l-.14-.23c-3.17-5.53-4.89-11.49-5.14-17.88L.11,31.13l.24-.14L57.47,0l.22.11,57.66,30.07.42,51Zm-6.94-46.98L57.54,7.47,6.71,35.05l.39,47.05c.24,5.24,1.68,10.15,4.29,14.69.2.3.37.61.52.94,3.1,5.4,6.83,10.33,11.17,14.78,8.49,8.88,18.28,15.93,29.38,21.14.29.11.58.23.86.38,1.75.76,3.58,1.47,5.29,2.05,6.93-2.59,13.39-6.05,19.39-10.39.3-.26.63-.48.96-.69,5.35-3.88,10.27-8.23,14.77-13.08,10.06-10.88,15.56-21.77,15.49-30.68l-.38-47.03Z"/>
    </g>
  </g>
</svg>