<?xml version="1.0" encoding="UTF-8"?>
<svg id="Layer_2" data-name="Layer 2" xmlns="http://www.w3.org/2000/svg" xmlns:xlink="http://www.w3.org/1999/xlink" viewBox="0 0 173 200">
  <defs>
    <style>
      .cls-1 {
        clip-path: url(#clippath-1);
      }

      .cls-2 {
        clip-path: url(#clippath);
      }

      .cls-3 {
        fill: none;
      }

      .cls-4 {
        fill: #2f2a8b;
      }
    </style>
    <clipPath id="clippath">
      <rect class="cls-3" width="161.71" height="116.59"/>
    </clipPath>
    <clipPath id="clippath-1">
      <rect class="cls-3" x=".38" y="99.26" width="172.63" height="100.74"/>
    </clipPath>
  </defs>
  <g id="Layer_1-2" data-name="Layer 1">
    <g>
      <g class="cls-2">
        <path class="cls-4" d="m20.26,105.34l26.08-12.1-15.38-5.37,22.39-9.44c2.41.29,16.26,2.4,23.64,13.41-22.61,9.48-42.34,17.77-46.33,19.44l-10.4-5.93Zm-1.88-18.49l19.48,6.8-19.48,9.04v-15.84Zm82.48-28.46c30.72-12.95,51.64-3.44,56.57-.73-.5.49-1.53,1.2-3.52,2.01-6.64,2.69-42.47,17.7-73.93,30.9-5.82-9.12-15.34-12.88-21.32-14.39l42.2-17.79Zm-24.26-14.76c1.81-2.93,7.78-9.9,23.33-9.69l39.81,14.99c-10.03-1.22-23.4-.4-39.46,6.24l-23.68-11.55Zm-36.53-17.81l11.74-1.8,27.1,12.51c-2.76,2.09-4.36,4.27-5.2,5.69l-33.65-16.4Zm13.58-16.61l15.33,19.22-15.33-7.07v-12.15Zm39,21.99c-6.06.87-10.35,2.88-13.35,5.05l-11.49-14.41,24.84,9.36ZM15.19,102.44l-7.99-4.56,7.99-3.36v7.92Zm4.71,12.28l3.13.65.89-4.27,6.52,3.72.73-.31c1.12-.47,111.78-46.95,123.95-51.89,1.51-.61,6.1-2.47,5.93-5.81-.2-3.73-6.34-5.83-8.33-6.41L67.68,18.38l-2.34.36L50.46.08v20.93l-20.97,3.21,66.88,32.6-69.9,29.47-11.28-3.94v8.7l-15.19,6.41,21.01,11.98-1.1,5.28"/>
      </g>
      <path class="cls-4" d="m81.01,126.07c0-5.05,4.11-9.15,9.16-9.15s9.16,4.1,9.16,9.15-4.11,9.15-9.16,9.15-9.16-4.1-9.16-9.15Zm21.52,0c0-6.81-5.54-12.34-12.35-12.34s-12.35,5.53-12.35,12.34,5.54,12.33,12.35,12.33,12.35-5.53,12.35-12.33"/>
      <g class="cls-1">
        <path class="cls-4" d="m6.67,196.73l21.31-39.74h49.43l12.76,24.57,13.41-25.82h37.56l26.05,40.99H6.67Zm64.83-58.06l-.08-.15c-.88-1.31-1.61-2.73-2.19-4.21-1.02-2.61-1.54-5.35-1.54-8.16,0-12.38,10.08-22.45,22.47-22.45s22.47,10.07,22.47,22.45c0,2.8-.52,5.55-1.54,8.16-.58,1.48-1.31,2.9-2.19,4.21l-18.75,36.1-18.67-35.96Zm100.13,59.09l-1.19-8.08-3.16.46.15,1.02-24.54-38.61h-37.66s8.2-15.41,8.85-17.08c1.17-2.98,1.76-6.11,1.76-9.32,0-14.14-11.52-25.64-25.67-25.64s-25.67,11.5-25.67,25.64c0,3.2.59,6.33,1.76,9.32.65,1.67,9.51,18.33,9.51,18.33H26.06l-19.5,36.36-2.38-.49-1.7,8.1-1.15,2.15h171.67l-1.38-2.16"/>
      </g>
      <path class="cls-4" d="m156.89,97.06l-1.23-8.42-3.16.46,1.23,8.42,3.17-.46"/>
      <path class="cls-4" d="m166.05,181.72l3.16-.46-1.23-8.42-3.16.46,1.23,8.42"/>
      <path class="cls-4" d="m157.42,122.78l1.23,8.42,3.16-.46-1.23-8.42-3.16.46"/>
      <path class="cls-4" d="m150.02,72.27l1.23,8.42,3.16-.46-1.23-8.42-3.17.46"/>
      <path class="cls-4" d="m161.11,148.04l3.16-.46-1.23-8.42-3.17.46,1.23,8.42"/>
      <path class="cls-4" d="m163.58,164.89l3.17-.46-1.23-8.42-3.16.46,1.23,8.42"/>
      <path class="cls-4" d="m159.35,113.9l-1.23-8.42-3.16.46,1.23,8.42,3.16-.46"/>
      <path class="cls-4" d="m21.28,123.7l-3.13-.65-1.75,8.33,3.13.65,1.74-8.33"/>
      <path class="cls-4" d="m17.79,140.36l-3.13-.66-1.74,8.33,3.13.66,1.75-8.33"/>
      <path class="cls-4" d="m5.93,181.35l3.13.65,1.74-8.33-3.13-.65-1.74,8.33"/>
      <path class="cls-4" d="m14.3,157.02l-3.13-.66-1.74,8.33,3.13.66,1.74-8.33"/>
    </g>
  </g>
</svg>