<?xml version="1.0" encoding="UTF-8"?>
<svg id="Layer_2" data-name="Layer 2" xmlns="http://www.w3.org/2000/svg" xmlns:xlink="http://www.w3.org/1999/xlink" viewBox="0 0 170.59 118.69">
  <defs>
    <style>
      .cls-1 {
        fill: #2f337d;
      }

      .cls-2 {
        clip-path: url(#clippath-1);
      }

      .cls-3 {
        clip-path: url(#clippath);
      }

      .cls-4 {
        fill: none;
      }
    </style>
    <clipPath id="clippath">
      <rect class="cls-4" y="73.1" width="170.59" height="45.58"/>
    </clipPath>
    <clipPath id="clippath-1">
      <rect class="cls-4" x="20.63" width="129.33" height="43.56"/>
    </clipPath>
  </defs>
  <g id="Layer_1-2" data-name="Layer 1">
    <g>
      <path class="cls-1" d="m138.1,50.86l-10.2-10.2c-23.53,23.54-61.68,23.54-85.21,0-3.4,3.4-6.8,6.8-10.2,10.2,29.17,29.17,76.45,29.17,105.61,0"/>
      <path class="cls-1" d="m16.24,67.11c38.14,38.14,99.96,38.14,138.1,0-3.4-3.4-6.8-6.8-10.19-10.2-32.51,32.51-85.2,32.51-117.71,0-3.4,3.4-6.8,6.8-10.2,10.2"/>
      <g class="cls-3">
        <path class="cls-1" d="m160.39,73.16c-41.47,41.47-108.72,41.47-150.19,0-3.4,3.4-6.8,6.8-10.2,10.19,47.11,47.11,123.48,47.11,170.59,0-3.4-3.4-6.8-6.8-10.2-10.19"/>
      </g>
      <g class="cls-2">
        <path class="cls-1" d="m148.9.1H21.69v23.85h42.76v9.63l9.19,9.19h23.32l9.19-9.19v-9.63h42.76V.1"/>
      </g>
    </g>
  </g>
</svg>