<?xml version="1.0" encoding="utf-8"?>
<!-- Generator: Adobe Illustrator 27.5.0, SVG Export Plug-In . SVG Version: 6.00 Build 0)  -->
<svg version="1.1" id="Layer_1" xmlns="http://www.w3.org/2000/svg" xmlns:xlink="http://www.w3.org/1999/xlink" x="0px" y="0px"
	 viewBox="0 0 687.4 631.2" style="enable-background:new 0 0 687.4 631.2;" xml:space="preserve">
<style type="text/css">
	.st0{fill:#F2F2F2;}
	.st1{fill:#FD6584;}
	.st2{fill:#F0F0F0;}
	.st3{fill:#292989;}
	.st4{fill:#CCCCCC;}
	.st5{fill:#E5E5E5;}
	.st6{opacity:0.2;enable-background:new    ;}
	.st7{fill:#F1F1F1;}
	.st8{fill:#E8202A;}
	.st9{fill:#FFFFFF;}
	.st10{opacity:0.2;fill:#231F20;enable-background:new    ;}
	.st11{fill:#FFB6B6;}
	.st12{fill:#FFB8B8;}
</style>
<path class="st0" d="M611.8,594.3c0.2,11.7-1.4,23.4-4.8,34.6c-0.1,0.4-0.3,0.8-0.4,1.2h-70.5c1-5,2.6-9.8,4.8-14.4
	c5.9-12.5,15.4-23.1,24.9-33.7c13-14.6,25.7-29,27.8-48c5.2,7.9,9.3,16.4,12.3,25.3c-3.6,1.3-7,3.4-9.8,6c-0.8,0.7-1.6,1.8-1.2,2.8
	c0.4,0.9,1.4,1.1,2.4,1.3c2.3,0.4,4.5,0.9,6.8,1.3c1.8,0.4,3.6,0.7,5.4,1C610.8,579.2,611.7,586.7,611.8,594.3z"/>
<path class="st0" d="M671,586.5c-11.3,6.9-18.5,17.5-24.4,29.4c-5.1,1.2-9.8,3.6-13.7,7.2c-0.8,0.7-1.7,1.8-1.2,2.8
	c0.4,0.9,1.4,1.1,2.4,1.3c2.2,0.4,4.5,0.9,6.7,1.3c-0.2,0.5-0.4,1-0.6,1.5h-74.7c3.4-4.6,7.1-8.9,11.2-12.8c0.9-0.9,1.8-1.7,2.7-2.6
	c9.5-8.6,20.5-15.5,32.3-20.4C630.5,586.4,651,583.8,671,586.5z"/>
<path class="st0" d="M578,630.1h-66.5c-0.4-5.3-0.3-10.7,0.1-16c2.9-33.3,20.3-63.7,47.5-83.2c-3.4,12.3-1.7,24.5,1.9,36.8
	c-0.5,0.2-1,0.3-1.5,0.5c-3.6,1.3-7,3.4-9.8,6c-0.8,0.7-1.6,1.8-1.2,2.8c0.4,0.9,1.4,1.1,2.4,1.3c2.3,0.4,4.5,0.9,6.7,1.3
	c1.8,0.4,3.6,0.7,5.4,1.1c0.8,0.1,1.7,0.3,2.5,0.5c0.1,0.3,0.2,0.6,0.3,0.8c4.2,11.6,8.8,23.3,11,35.2c0.5,3,0.9,6,1.1,9
	C577.9,627.5,578,628.8,578,630.1z"/>
<circle class="st1" cx="69" cy="22.5" r="22.5"/>
<path class="st2" d="M119.4,11.9c-1.3-4.3-5-7.3-9.4-7.8c0,0-0.1,0-0.1,0c-0.1,0-0.1,0-0.2,0C99.3,2.6,87.4,7.6,83.1,17.3
	c-2.1-2.9-5.5-4.6-9.1-4.5c-4.7,0.3-8.7,3.5-9.9,8c-0.1,0.6,0.1,1.1,0.6,1.4c0.7,0.6,1.5,1,2.4,1.2c1.9,0.4,3.7,0.8,5.6,1.1
	c3.7,0.6,7.4,1.2,11.1,1.6c7.5,0.8,15.1,1.1,22.7,0.9c2.5-0.1,5-0.2,7.3-1.3c1.7-0.8,3.1-2.1,4.2-3.6
	C119.8,19.1,120.4,15.3,119.4,11.9z"/>
<path class="st2" d="M72.6,41.9c-1.3-4.3-5-7.3-9.4-7.8c0,0-0.1,0-0.1,0c-0.1,0-0.1,0-0.2,0c-10.3-1.3-22.2,3.6-26.5,13.4
	c-2.1-2.9-5.5-4.6-9.1-4.5c-4.7,0.3-8.7,3.5-9.9,8c-0.1,0.6,0.1,1.1,0.6,1.4c0.7,0.6,1.5,1,2.4,1.2c1.9,0.4,3.7,0.8,5.6,1.1
	c3.7,0.6,7.4,1.2,11.1,1.6C44.4,57,52,57.3,59.6,57c2.5-0.1,5-0.2,7.3-1.3c1.7-0.8,3.1-2.1,4.2-3.6C73,49.1,73.6,45.4,72.6,41.9z"/>
<path class="st3" d="M289.1,391.3c-0.6,0.8-2.1,1.8-2.7,2.7l0.6-1.9l-0.2-0.4l-1.3-2.7l-33.8-68l0,0l-57.2-115.3v0l-1.3-2.6v0
	l-28.3-57.1l-1.3-2.7c1,0,2,0.1,3,0.1l1.4,2.7l28.2,56.9l0,0l1.3,2.6v0L253.3,318v0l1.3,2.6v0l33.8,68l0.5,0.9L289.1,391.3z"/>
<path class="st3" d="M285.4,205.6H32.7c0.7-0.9,1.4-1.8,2.1-2.7h248.5C284,203.9,284.7,204.7,285.4,205.6z"/>
<path class="st3" d="M317.4,318c-0.1,0.9-0.2,1.8-0.3,2.7h-64.7V318H317.4z"/>
<path class="st3" d="M42.3,194.2v213.4c-0.9-1-1.8-1.9-2.7-2.9V197.2C40.5,196.2,41.4,195.2,42.3,194.2z"/>
<rect x="41" y="389" class="st3" width="246.7" height="2.7"/>
<path class="st4" d="M287.5,391.3h0.3v-0.4C287.7,391,287.6,391.2,287.5,391.3z M285.5,205.3c-0.7-0.9-1.4-1.8-2.1-2.7
	c-28.5-35.8-71-57.5-116.7-59.7c-1-0.1-2-0.1-3-0.1c-1.5,0-3-0.1-4.5-0.1c-44.3,0-86.7,18.5-116.7,51.1c-0.9,1-1.8,1.9-2.7,2.9
	c-1.7,1.9-3.3,3.8-4.9,5.8c-0.7,0.9-1.4,1.8-2.1,2.7c-46.2,60.3-43.3,144.8,7,201.7c0.9,1,1.7,2,2.7,2.9
	c59.5,64.5,160.1,68.5,224.6,8.9c8-7.4,15.2-15.6,21.6-24.5c0.6-0.8,1.2-1.6,1.7-2.5c14.7-21.3,23.9-45.9,26.9-71.6
	c0.1-0.9,0.2-1.8,0.3-2.7c0.5-5.2,0.8-10.4,0.8-15.7C318.3,267,306.8,233,285.5,205.3L285.5,205.3z M314.5,320.3
	c-2.9,24.7-11.7,48.3-25.6,68.9c-0.4,0.5-0.7,1.1-1.1,1.6c-0.1,0.2-0.2,0.3-0.3,0.4c-0.1,0.1-0.2,0.3-0.3,0.4
	c-49.5,70.7-147,87.9-217.7,38.4c-9.9-7-19.1-15.1-27.1-24.1c-0.9-1-1.8-2-2.7-3.1c-48.1-56.6-49.6-139.3-3.6-197.7
	c0.7-0.9,1.4-1.8,2.1-2.7c0.5-0.6,1-1.2,1.5-1.8c0.8-1,1.7-2,2.7-3.1c29.6-33.3,72.1-52.4,116.7-52.4c2,0,3.9,0,5.9,0.1
	c1,0,2,0.1,3,0.1c43.6,2.5,84.2,23.1,111.9,56.9c0.7,0.9,1.4,1.8,2.1,2.7c25,31.8,36.7,72.1,32.7,112.4
	C314.7,318.6,314.6,319.5,314.5,320.3L314.5,320.3z M287.5,391.3h0.3v-0.4C287.7,391,287.6,391.2,287.5,391.3L287.5,391.3z"/>
<path class="st5" d="M139.1,92.3c0,0.7,0,1.5-0.1,2.2c-0.3,4.1-1.3,8.2-3.1,11.9c0,0,0,0.1,0,0.1c-0.1,0.2-0.2,0.3-0.3,0.5
	c-0.5,1.1-1.1,2.1-1.7,3.1c-5.9,9.3-16.1,15-27.1,15.3l0.3,18.8l4.3-2.2l0.8,1.4l-5,2.6l0.6,34.9l0,0.5l-3.3,0.7l0-0.5l1-56.3
	c-8.8-0.1-17.2-3.8-23.3-10.1c-0.2-0.2-0.4-0.4-0.6-0.7l0,0c-2.5-2.7-4.6-5.9-6-9.3c0,0,0.1,0.1,0.1,0.1
	C62,71.1,69.9,55.3,91.3,62.8c0.1-0.1,0.2-0.1,0.3-0.2c15.5-7.5,34.1-1.8,42.9,13c0.2,0.3,0.4,0.7,0.6,1
	C137.7,81.5,139.1,86.9,139.1,92.3z"/>
<path class="st5" d="M178,63.2c-0.4,6.6-2.1,13-5,18.9c-5.6,11.3-15.4,19.9-27.6,23.1c0,0,0,0-0.1,0c-3.1,0.8-6.2,1.3-9.4,1.3h-0.3
	c-0.3,0-0.7,0-1,0c-0.2,0-0.5,0-0.7,0c-23.7-0.4-42.6-19.6-42.6-43.3v-0.5c0-2.8,0.4-5.5,1.2-8.2c0,0,0,0,0,0
	c1.4-4.6,4-8.8,7.5-12.1c8.7-8.6,22.4-14,34.6-22.5C161.2,1.2,180.7,19.8,178,63.2z"/>
<path class="st6" d="M173,82.1c-5.6,11.3-15.4,19.9-27.6,23.1c0,0,0,0-0.1,0c-3.1,0.8-6.2,1.2-9.4,1.2h-0.3c-0.6,0-1.1,0-1.7,0
	c-23.7-0.6-42.6-20.1-42.3-43.9c0-2.7,0.3-5.4,0.8-8c0,0,0,0,0,0c1.4-4.6,4-8.8,7.5-12.1c-4.9,23.4,10.1,46.4,33.5,51.3
	c0.2,0,0.4,0.1,0.6,0.1c0.4,0.1,0.8,0.2,1.2,0.2c1.2,0.2,2.4,0.3,3.6,0.4C151.6,95.5,164,91,173,82.1z"/>
<polygon class="st3" points="136.1,133.6 142.6,130.1 141.6,128.2 136.1,131.2 135.6,107.1 135.6,107.1 135.6,106.5 135.6,106.5 
	135.4,94.1 135.1,76.6 134.9,63.2 134.7,63.2 134.5,75.6 134.5,75.6 134.2,93.8 134,106.4 133.9,106.5 133.9,110.1 132.6,182.2 
	132.5,182.7 137,183.9 137,183.5 "/>
<path class="st3" d="M293.9,218.9c-27.5-5.5-55.1-10.5-83-13.6c-26.5-3.1-53.2-3.9-79.8-2.3c-24,1.6-48.3,5.4-70.9,14.1
	c-17.4,6.7-35.9,16.8-45.3,33.6c-9.1,16.2-5.5,35,4.3,50c11.9,18,30.4,30.4,49.6,39.4c21.9,10.3,45.3,16.9,68.8,22.6
	c11.9,2.9,23.9,5.5,35.8,8.1c2.5,0.5,3.6-3.3,1.1-3.8c-24.1-5.2-48.3-10.4-71.9-18c-21.8-7-44.1-15.9-61.9-30.6
	c-14.4-11.9-28.1-29.2-27.3-48.9c0.9-19.9,17.5-33.7,33.9-42.3c20.4-10.7,43.6-15.9,66.3-18.6c26-2.9,52.3-3.3,78.4-1.1
	c34.9,2.7,69.2,8.8,103.5,15.7"/>
<path class="st7" d="M164.8,250.6c11.6,5.8,18.6,13.4,18.6,21.8c0,18.1-32.7,32.7-73,32.7c-17.5,0-33.6-2.8-46.2-7.4
	c13.4,6.7,32.7,10.9,54.3,10.9c40.3,0,73-14.6,73-32.7C191.6,265.7,181.2,256.6,164.8,250.6z"/>
<path class="st7" d="M190.6,263c13.1,6.5,21,15.1,21,24.6c0,20.4-36.9,36.9-82.3,36.9c-19.8,0-37.9-3.1-52.1-8.3
	c15.1,7.5,37,12.3,61.3,12.3c45.5,0,82.3-16.5,82.3-36.9C220.8,280,209,269.7,190.6,263z"/>
<path class="st7" d="M155,256c8.2,4.1,13.1,9.5,13.1,15.4c0,12.7-23,23-51.4,23c-11.1,0.1-22.1-1.6-32.5-5.2
	c9.4,4.7,23.1,7.7,38.3,7.7c28.4,0,51.4-10.3,51.4-23C173.8,266.7,166.5,260.3,155,256z"/>
<path class="st3" d="M111.5,280.4c-16.8,0-24.9-4.6-28.8-8.5c-2-2-2-5.2,0-7.2c1-1,2.2-1.5,3.6-1.5h58.5c2.1,0,3.8,1.7,3.8,3.8
	c0,1.2-0.5,2.3-1.5,3C141.2,274.8,130.2,280.4,111.5,280.4z"/>
<path class="st3" d="M123.7,221.5c-4.6-3.5-10.3-5-16-4.4c10.1,2.5,2.1,16.4,11.3,30.9c5,7.9-4.7,11.8-14,12.8
	c11.9,2.9,24-4.5,26.9-16.4C134,235.9,130.7,226.9,123.7,221.5L123.7,221.5z"/>
<rect x="111.2" y="214.2" class="st3" width="2.2" height="51.3"/>
<path class="st8" d="M320.6,228.6c-24.1-16.9-57.3-11.2-74.2,12.9c0,0,0,0,0,0c-16.9,24.1-33.9,87.1-21.9,123.7
	c35.8-37.8,90.8-41.7,109.1-62.3C353,280.9,344.6,245.6,320.6,228.6z"/>
<circle id="af3c8991-f89c-43e0-a050-89c81726f2a6" class="st9" cx="289.2" cy="265.7" r="17.4"/>
<circle id="a49e5b2e-c339-415c-b240-8977b61bd9a6" class="st8" cx="209.7" cy="372.7" r="11.4"/>
<path class="st10" d="M307.8,261.7c4.8,8.3,2,18.9-6.2,23.8s-18.9,2-23.8-6.2c7.2,6.3,18.2,5.6,24.5-1.6c4.9-5.6,5.7-13.8,1.9-20.2
	C305.6,258.7,306.8,260.1,307.8,261.7z"/>
<path class="st10" d="M333.5,302.9c-18.3,20.6-73.3,24.5-109.1,62.3c-1.1-3.5-2-7-2.6-10.6c35.8-34.4,87.7-38.7,105.4-58.6
	c15.8-17.8,13.3-44.3-0.9-62.8C345.9,251.5,351.4,282.8,333.5,302.9z"/>
<polygon class="st11" points="520.9,617.2 507.9,617.2 501.7,567.2 520.9,567.2 "/>
<path class="st3" d="M524.2,629.8l-41.8,0v-0.5c0-9,7.3-16.3,16.3-16.3h0l7.6-5.8l14.3,5.8l3.7,0L524.2,629.8z"/>
<polygon class="st11" points="470.6,609.1 458,611.9 440.9,564.5 459.6,560.3 "/>
<path class="st3" d="M476.6,620.6l-40.8,9.2l-0.1-0.5c-2-8.8,3.5-17.5,12.3-19.5l0,0l6.2-7.3l15.2,2.5l3.6-0.8L476.6,620.6z"/>
<path class="st3" d="M537.3,311.4c6.1,18.3,5.4,38.2-1.5,59.6l-2.9,120.3c4.9,5.4,7.9,27.2,0.4,42.9c-10,20.9-3.1,49.9-10.2,63.7
	h-20.6l-5.1-56.5l-4.5-6.4l-0.7-51c-2.7-6.5-5.9-12.9-0.3-20.4l-0.1-8.9l-0.8-47.2l-31,45.4c-0.9,10.3-6.1,15.6-13.1,19.1l9.6,42.4
	c16.8,14.4,12.7,36.6,13,57.2l5.5,24.3l-25.3,2.3l-11.2-33L426,545.1l-21.8-81.2l15.2-35.4l6.2-14.4l34.8-80.7L537.3,311.4z"/>
<path class="st12" d="M322.4,246c3.8,3.8,10,3.8,13.9,0c0.4-0.4,0.8-0.9,1.1-1.3l33.5,9.4l-5.5-17.2l-31-6.3
	c-4.7-2.8-10.7-1.3-13.5,3.4C318.6,237.8,319.2,242.8,322.4,246z"/>
<path class="st8" d="M349.9,232.1l32.7-0.2l0,0c8.8-2.5,18.1-2.7,27.1-0.6l1.7,0.4l13.7-1.5c8.1-16.3,23.2-31,43.5-44.5
	c12-9.6,29.5-7.8,39.1,4.2c0.7,0.8,1.3,1.7,1.9,2.7l0,0c7.8,12.5,4.6,28.9-7.5,37.5l-61.8,36.3c-5.4,3.2-11.6,4.9-17.9,5l0,0
	l-0.1,0.1L387,258.1l-18.1-2.3l-24.6-7.1L349.9,232.1z"/>
<circle class="st12" cx="481.2" cy="124.8" r="30.9"/>
<path class="st3" d="M510,144.4c2.3-3.3,3.9-8.5,4.9-12.3c2.6-10.2,0.7-21-5.1-29.7c-1.1-1.8-2.6-3.2-4.4-4.2
	c-1.9-0.8-4.3-0.6-5.6,0.9c0-2.8-1.2-5.5-3.2-7.4c-2-1.9-4.5-3.3-7.2-4c-10.5-3.2-21.8-0.4-29.6,7.3c-1.5,1.5-1-6.1-2.6-4.7
	c-1.6,1.4-3.7,2.2-5.9,2.1c-2.1-0.2-6,7.3-6,5.2c-2.2,2.2-3.2,11.6-2.5,14.7s11,1.7,14,2.8c2,0.7,4.1,0.7,6.1,1.2
	c7.5,1.9,12.4,9.2,11.3,16.8c1.3-1.8,2.9-3.3,4.7-4.5c1.8-1.3,4.1-1.5,6.2-0.8c1.9,1,3.2,2.7,3.8,4.8c0.7,2,0.9,4.1,1.6,6.1
	c2,5.8,3.1,11.9,8.7,13.3C503.7,153,506.9,148.9,510,144.4z"/>
<path class="st8" d="M539.9,305.3l-3.4-6.8c-4.2-25.7-8.2-49.7-2.7-71.3c0.3-18.8-5.5-36.5-21.6-46.2l-7.3-4.4l-3.7-9.4l-34,0.8
	l-0.1,12.3L455,199.9v0.1l0.8,105.6l3.4,10.9l-5.1,12.7l2.7,8.1l67-10.7l7.8-1.2c0.9-0.3,1.8-0.7,2.6-1.1c2.8-1.6,5-4,6.2-7
	c0.1-0.2,0.1-0.3,0.2-0.5c0.5-1.4,0.8-2.8,0.9-4.3C541.6,309.9,541,307.5,539.9,305.3z"/>
<path class="st6" d="M541.4,312.4c-0.1,1.5-0.4,2.9-0.9,4.3l-6.4,7.5c-0.8,0.5-1.7,0.8-2.6,1.1l-7.8,1.2l11.3-21.2l-24.8-54.2
	L541.4,312.4z"/>
<path class="st12" d="M568.4,375.1c-4.7-3.2-5.9-9.6-2.7-14.3c0.3-0.5,0.7-1,1.2-1.4l-16.3-32.8l18.9,2.3l12.6,30.8
	c3.8,4.3,3.4,10.8-0.8,14.6C577.6,377.5,572.3,377.8,568.4,375.1L568.4,375.1z"/>
<path class="st8" d="M502.3,262.4l12.4-1.7c0,0,1.2,18.6,7.1,21.5s3.9,3.3,4.6,6.3s3.9,7.5,8.5,9.6s26,53.9,26,53.9l17.9-4.2
	c-1.7-4.5-2.8-9.2-3.3-14c-0.6-7.2-8.8-24.2-11.5-26.8s-1.6-7-3-13s-0.4-0.4-2.8-10.4s-28.5-69.7-29.6-78.9s-13.9-14.6-13.9-14.6
	l-10,2.3L502.3,262.4z"/>
<path id="a00e3c47-1fa9-4e2e-8ad1-93a2fdd4719a-213" class="st4" d="M296.9,631.2h389.3c0.7,0,1.2-0.6,1.2-1.2s-0.6-1.2-1.2-1.2
	H296.9c-0.7,0-1.2,0.6-1.2,1.2S296.2,631.2,296.9,631.2L296.9,631.2z"/>
</svg>
