<?xml version="1.0" encoding="utf-8"?>
<!-- Generator: Adobe Illustrator 27.5.0, SVG Export Plug-In . SVG Version: 6.00 Build 0)  -->
<svg version="1.1" id="Layer_1" xmlns="http://www.w3.org/2000/svg" xmlns:xlink="http://www.w3.org/1999/xlink" x="0px" y="0px"
	 viewBox="0 0 572.9 361.3" style="enable-background:new 0 0 572.9 361.3;" xml:space="preserve">
<style type="text/css">
	.st0{fill:#E8202A;}
	.st1{fill:#FFFFFF;}
	.st2{fill:#FF6584;}
	.st3{opacity:0.4;fill:#E8202A;enable-background:new    ;}
	.st4{fill:#292989;}
	.st5{fill:#CCCCCC;}
	.st6{fill:#F2F2F2;}
</style>
<path class="st0" d="M418,88c0,34.7-54.2,136.9-85.3,192.7c-6.5,11.7-21.3,15.9-33.1,9.4c-4-2.2-7.2-5.5-9.4-9.4
	C259.2,224.9,205,122.7,205,88c0-48.6,47.7-88,106.5-88S418,39.4,418,88z"/>
<circle class="st1" cx="312" cy="87" r="58"/>
<circle class="st2" cx="70" cy="104.7" r="34.7"/>
<ellipse class="st0" cx="311.5" cy="354.9" rx="84.1" ry="6.5"/>
<circle class="st3" cx="43.2" cy="132.4" r="20"/>
<path class="st4" d="M510.8,235.5c-157.4-59-349.4-1.5-460.2,116.2c-0.6,0.7-1.3,1.3-1.9,2H47c0.6-0.7,1.2-1.3,1.8-2
	C161.9,225.1,351.3,174.6,510.8,235.5z"/>
<path class="st4" d="M553.8,255.1c-13.9-7.4-28.3-14-43-19.6C525.5,241.1,539.9,247.6,553.8,255.1z"/>
<circle class="st3" cx="467.6" cy="174.3" r="21.9"/>
<path class="st4" d="M470.1,342.9c1.7,6.3,7.5,10.1,7.5,10.1s3.1-6.3,1.4-12.5s-7.5-10.1-7.5-10.1S468.4,336.7,470.1,342.9z"/>
<path class="st0" d="M472.6,341.6c4.6,4.5,5.2,11.5,5.2,11.5s-7-0.4-11.6-4.9s-5.2-11.5-5.2-11.5S467.9,337.1,472.6,341.6z"/>
<path class="st4" d="M3.4,255.9v9.7L2.9,266v-10.3C3,255.8,3.2,255.8,3.4,255.9z"/>
<path class="st5" d="M34.1,351.7c-0.1,0.2-0.3,0.5-0.4,0.7H2.9v-96.1l0.5-0.5l4.1,4.7v-6.8h13v21.6l13.1,14.9l0.1,0.1
	c0.2,0.5,0.3,1,0.5,1.5c0,0,0,0,0,0c2,6.3,3.6,12.7,4.8,19.2C41.9,326.3,41.4,340.4,34.1,351.7z"/>
<rect x="5.4" y="309" class="st4" width="8.3" height="6.9"/>
<rect x="5.4" y="321.4" class="st4" width="8.3" height="6.9"/>
<path class="st4" d="M268.6,295.9l-4.1-6.9l38.6-33.1c28.5-13.7,63-9.8,99.3,0v9.7l-35.9,38.6l-41.4,8.3L268.6,295.9z"/>
<path class="st5" d="M419.5,275.3c6.9-7.6,7.8-14.9,0-21.6h-13v6.8l-4.1-4.7L369.3,289l-5.5,5.5l-6.9,27.6l12.4,30.3h63.4v-62.1
	L419.5,275.3z"/>
<path class="st6" d="M264.5,289h104.8v63.4H264.5C251.8,338.7,258.4,313.7,264.5,289z"/>
<rect x="332.7" y="309" class="st4" width="22.1" height="19.3"/>
<rect x="304.4" y="308.3" class="st5" width="19.3" height="44.1"/>
<polygon class="st4" points="282.4,315.2 282.4,308.3 274.1,308.3 274.1,315.2 281.7,315.2 "/>
<polygon class="st4" points="281.7,320.7 274.1,320.7 274.1,327.6 282.4,327.6 282.4,320.7 "/>
<rect x="287.9" y="308.3" class="st4" width="8.3" height="6.9"/>
<rect x="287.9" y="320.7" class="st4" width="8.3" height="6.9"/>
<polygon class="st4" points="398.9,315.8 398.9,309 390.6,309 390.6,315.8 398.2,315.8 "/>
<polygon class="st4" points="398.2,321.4 390.6,321.4 390.6,328.3 398.9,328.3 398.9,321.4 "/>
<rect x="404.4" y="309" class="st4" width="8.3" height="6.9"/>
<rect x="404.4" y="321.4" class="st4" width="8.3" height="6.9"/>
<polygon class="st4" points="82,180 75.1,174.5 113.7,140 211.6,140 211.6,170.4 148.2,213.1 "/>
<path class="st5" d="M229.5,159.4v-18.7h-13v4.6l-4.9-5.3l-31.7,34.5l-12.4,8.3l-19.2,140.6l29,29h67.5c10.3-52,18.5-105.4,0-176.5
	L229.5,159.4z"/>
<path class="st6" d="M75.1,174.5h104.8v177.9H75.1C63.6,283.3,58,219.2,75.1,174.5z"/>
<rect x="115.8" y="309" class="st5" width="19.3" height="43.4"/>
<polygon class="st4" points="95.1,321.4 95.1,314.5 86.8,314.5 86.8,321.4 94.4,321.4 "/>
<polygon class="st4" points="94.4,326.9 86.8,326.9 86.8,333.8 95.1,333.8 95.1,326.9 "/>
<rect x="100.6" y="314.5" class="st4" width="8.3" height="6.9"/>
<polygon class="st4" points="150.9,326.9 143.3,326.9 143.3,333.8 151.6,333.8 151.6,326.9 "/>
<rect x="157.1" y="314.5" class="st4" width="8.3" height="6.9"/>
<rect x="157.1" y="326.9" class="st4" width="8.3" height="6.9"/>
<polygon class="st4" points="209.5,183.5 209.5,176.6 201.3,176.6 201.3,183.5 208.8,183.5 "/>
<polygon class="st4" points="208.8,189 201.3,189 201.3,195.9 209.5,195.9 209.5,189 "/>
<rect x="215" y="176.6" class="st4" width="8.3" height="6.9"/>
<rect x="215" y="189" class="st4" width="8.3" height="6.9"/>
<polygon class="st4" points="209.5,222.1 209.5,215.2 201.3,215.2 201.3,222.1 208.8,222.1 "/>
<polygon class="st4" points="208.8,227.6 201.3,227.6 201.3,234.5 209.5,234.5 209.5,227.6 "/>
<rect x="215" y="215.2" class="st4" width="8.3" height="6.9"/>
<rect x="215" y="227.6" class="st4" width="8.3" height="6.9"/>
<polygon class="st4" points="209.5,260.7 209.5,253.8 201.3,253.8 201.3,260.7 208.8,260.7 "/>
<polygon class="st4" points="208.8,266.2 201.3,266.2 201.3,273.1 209.5,273.1 209.5,266.2 "/>
<rect x="215" y="253.8" class="st4" width="8.3" height="6.9"/>
<rect x="215" y="266.2" class="st4" width="8.3" height="6.9"/>
<polygon class="st4" points="209.5,299.3 209.5,292.4 201.3,292.4 201.3,299.3 208.8,299.3 "/>
<polygon class="st4" points="208.8,304.8 201.3,304.8 201.3,311.7 209.5,311.7 209.5,304.8 "/>
<rect x="215" y="292.4" class="st4" width="8.3" height="6.9"/>
<rect x="215" y="304.8" class="st4" width="8.3" height="6.9"/>
<path class="st4" d="M86.8,183.5h80V200c-25.6-7.1-52.4-6.6-80,0V183.5z"/>
<path class="st4" d="M86.8,216.6c25,7.4,51.6,7.4,80,0v16.5h-80V216.6z"/>
<path class="st4" d="M86.8,249.7h80v16.5c-27.3-8.7-53.9-9.1-80,0V249.7z"/>
<path class="st4" d="M86.8,282.8c26.1,10.1,52.8,9.6,80,0v16.5h-80V282.8z"/>
<path class="st4" d="M516.7,254h56.2v27.1l-5,1.6l-16.7,5.2l-26.2-6.1l-26.2-6.1l-13.8-3.2l-6.9-2.6
	C483.8,262.1,494.3,255.9,516.7,254z"/>
<path class="st6" d="M572.9,270v82.4h-94.8c0-0.1,0-0.1-0.1-0.1v0c0-0.1,0-0.1-0.1-0.2c-1.5-3-2.8-6-4-8.9
	c-10-25.1-8.9-49.5,4.1-73.2L572.9,270z"/>
<rect x="518.8" y="309" class="st5" width="19.3" height="43.4"/>
<polygon class="st4" points="498.1,321.4 498.1,314.5 489.8,314.5 489.8,321.4 497.4,321.4 "/>
<polygon class="st4" points="497.4,326.9 489.8,326.9 489.8,333.8 498.1,333.8 498.1,326.9 "/>
<rect x="503.6" y="314.5" class="st4" width="8.3" height="6.9"/>
<rect x="503.6" y="326.9" class="st4" width="8.3" height="6.9"/>
<polygon class="st4" points="554.6,321.4 554.6,314.5 546.3,314.5 546.3,321.4 553.9,321.4 "/>
<polygon class="st4" points="553.9,326.9 546.3,326.9 546.3,333.8 554.6,333.8 554.6,326.9 "/>
<rect x="560.1" y="314.5" class="st4" width="8.3" height="6.9"/>
<rect x="560.1" y="326.9" class="st4" width="8.3" height="6.9"/>
<path class="st4" d="M498.8,222h11.9c24.4,0,44.2,19.8,44.2,44.2l0,0h-56.1V222z"/>
<path class="st4" d="M138.8,102h11.9c24.4,0,44.2,19.8,44.2,44.2l0,0l0,0h-56.1V102z"/>
<path class="st4" d="M328.8,213h11.9c24.4,0,44.2,19.8,44.2,44.2l0,0h-56.1V213z"/>
<rect x="498.8" y="282.8" class="st4" width="56.1" height="16.5"/>
<rect x="2.9" y="351.7" class="st4" width="570" height="2"/>
<rect x="53.5" y="272.7" class="st4" width="2" height="79"/>
<path class="st0" d="M73.9,282.8c0.1,27.6-19.3,50.1-19.3,50.1S29.7,310.1,34.8,283c5.1-27.3,21.2-50,19.3-50.1
	C54.1,232.8,73.8,255.1,73.9,282.8z"/>
<rect x="253.5" y="272.7" class="st4" width="2" height="79"/>
<path class="st0" d="M273.9,282.8c1.8,27.6-19.3,50.1-19.3,50.1S235,310.6,234.8,283s19.3-50.1,19.3-50.1
	C252.2,240.4,272.4,260.5,273.9,282.8z"/>
<polygon class="st4" points="125.5,144.3 212.4,140 248.8,170.5 242.4,176.3 184.7,175 "/>
<path class="st4" d="M38.8,285.5l-4.7,4.2l-0.6,0.5l-1.2,1.1l-29.5-0.7v-34.9c-1-0.2-1.9-0.4-2.9-0.6l2.4-0.1l0.5,0.4l4.6,3.8
	l13,10.9L35,282.2L38.8,285.5z"/>
<polygon class="st4" points="315.5,259.3 402.4,255 438.8,285.5 432.4,291.3 374.7,290 "/>
</svg>
