<?xml version="1.0" encoding="utf-8"?>
<!-- Generator: Adobe Illustrator 27.5.0, SVG Export Plug-In . SVG Version: 6.00 Build 0)  -->
<svg version="1.1" id="Layer_1" xmlns="http://www.w3.org/2000/svg" xmlns:xlink="http://www.w3.org/1999/xlink" x="0px" y="0px"
	 viewBox="0 0 649.7 618.6" style="enable-background:new 0 0 649.7 618.6;" xml:space="preserve">
<style type="text/css">
	.st0{fill:#F2F2F2;}
	.st1{fill:#3F3D56;}
	.st2{fill:#FF6584;}
	.st3{fill:#FFFFFF;}
	.st4{fill:#CACACA;}
	.st5{fill:#F0F0F0;}
	.st6{fill:#FFB6B6;}
	.st7{fill:#292989;}
	.st8{fill:#E8202A;}
</style>
<path class="st0" d="M370.9,575.8c-12.5,0-23.1-9-25.1-21.3l0,0l0,0c1.6-2,2.9-4.1,3.9-6.5c-1.1,1.5-2.5,2.7-4.1,3.7l-0.2,0.1l0-0.2
	c0-0.4,0-0.8,0-1.2c0-8.8,4.5-17,12-21.6c-13.8-14.4-13.3-37.1,1.1-50.9c14.4-13.8,37.1-13.3,50.9,1.1c3.7,3.9,6.5,8.5,8.2,13.6
	l0,0.1l-0.1,0c-2.2,0.9-4.5,1.4-6.9,1.4c2.5,0.7,5,1,7.6,0.9l0.1,0l0,0.1c0.7,2.9,1.1,5.8,1.1,8.8c0,0.1,0,0.2,0,0.3
	c0,4.6,1.9,9.1,5.4,12.2c10.4,9.5,11.2,25.6,1.7,36c-0.9,1-1.9,1.9-2.9,2.7l-0.1,0l-0.1,0c-3.8-1.7-6.4-3.6-8.2-6
	c1.2,2.9,3,5.6,5.2,7.9l0.1,0.1l-0.1,0.1c-7.7,4.5-17.3,4.6-25.1,0.3C392.2,568.2,382.2,575.7,370.9,575.8z"/>
<path class="st1" d="M361.8,616.3c-0.2,0-0.4-0.2-0.5-0.4c-1.2-10.8-1.3-21.7-0.2-32.5c1.6-17,6.7-41.6,22.1-61.8
	c0.2-0.2,0.4-0.2,0.6-0.1c0.2,0.2,0.2,0.4,0.1,0.6c0,0,0,0,0,0c-15.2,20-20.3,44.4-21.9,61.3c-1.1,10.7-1,21.6,0.2,32.3
	C362.3,616.1,362.2,616.3,361.8,616.3C361.9,616.3,361.9,616.3,361.8,616.3L361.8,616.3z"/>
<path class="st1" d="M369.5,548.3c-0.3,0-0.5-0.2-0.5-0.5c0-0.1,0.1-0.3,0.2-0.4c4.4-3,9.1-5.4,14.1-7.2c7.8-2.8,19.6-5.4,31.7-1.6
	c0.2,0.1,0.4,0.3,0.3,0.6c-0.1,0.2-0.3,0.4-0.6,0.3c0,0,0,0,0,0c-11.9-3.8-23.5-1.3-31.1,1.5c-4.9,1.8-9.5,4.1-13.9,7
	C369.7,548.3,369.6,548.3,369.5,548.3z"/>
<circle class="st2" cx="136.4" cy="80.9" r="45"/>
<path class="st0" d="M132.9,104.5h-5.8V69.1c0-10-8.1-18.1-18.1-18.1H84.1V0h-4v51h-34v53.5H12.6v513h188V172.2
	C200.6,134.8,170.3,104.5,132.9,104.5z"/>
<path class="st0" d="M305.1,417h-5v-6.9c0-9.6-7.5-17.5-17-18V345h-4v47h-18v25h-64v201h142V451C339.1,432.2,323.9,417,305.1,417
	L305.1,417z"/>
<path class="st0" d="M579.1,273.1v-12c0-9.6-7.5-17.5-17-18V196h-4v47h-18v30h-85v345h188V340.7C643.1,304.8,615,275.1,579.1,273.1z
	"/>
<rect x="486.1" y="322" class="st3" width="25" height="20"/>
<rect x="527.1" y="322" class="st3" width="25" height="20"/>
<rect x="568.1" y="322" class="st3" width="25" height="20"/>
<rect x="486.1" y="373" class="st3" width="25" height="20"/>
<rect x="527.1" y="373" class="st3" width="25" height="20"/>
<rect x="568.1" y="373" class="st3" width="25" height="20"/>
<rect x="486.1" y="424" class="st3" width="25" height="20"/>
<rect x="527.1" y="424" class="st3" width="25" height="20"/>
<rect x="568.1" y="424" class="st3" width="25" height="20"/>
<rect x="486.1" y="475" class="st3" width="25" height="20"/>
<rect x="527.1" y="475" class="st3" width="25" height="20"/>
<rect x="568.1" y="475" class="st3" width="25" height="20"/>
<rect x="486.1" y="526" class="st3" width="25" height="20"/>
<rect x="527.1" y="526" class="st3" width="25" height="20"/>
<rect x="568.1" y="526" class="st3" width="25" height="20"/>
<rect x="486.1" y="577" class="st3" width="25" height="20"/>
<rect x="527.1" y="577" class="st3" width="25" height="20"/>
<rect x="568.1" y="577" class="st3" width="25" height="20"/>
<rect x="66.1" y="145" class="st3" width="81" height="6"/>
<rect x="66.1" y="182" class="st3" width="81" height="6"/>
<rect x="66.1" y="219" class="st3" width="81" height="6"/>
<rect x="66.1" y="256" class="st3" width="81" height="6"/>
<rect x="66.1" y="293" class="st3" width="81" height="6"/>
<rect x="66.1" y="330" class="st3" width="81" height="6"/>
<rect x="66.1" y="367" class="st3" width="81" height="6"/>
<rect x="66.1" y="404" class="st3" width="81" height="6"/>
<rect x="66.1" y="441" class="st3" width="81" height="6"/>
<rect x="66.1" y="478" class="st3" width="81" height="6"/>
<rect x="66.1" y="515" class="st3" width="81" height="6"/>
<rect x="66.1" y="552" class="st3" width="81" height="6"/>
<rect x="214.6" y="444" class="st3" width="25" height="20"/>
<rect x="255.6" y="444" class="st3" width="25" height="20"/>
<rect x="296.6" y="444" class="st3" width="25" height="20"/>
<rect x="215.1" y="495" class="st3" width="25" height="20"/>
<rect x="256.1" y="495" class="st3" width="25" height="20"/>
<rect x="297.1" y="495" class="st3" width="25" height="20"/>
<rect x="215.6" y="546" class="st3" width="25" height="20"/>
<rect x="256.6" y="546" class="st3" width="25" height="20"/>
<rect x="297.6" y="546" class="st3" width="25" height="20"/>
<rect x="74.1" y="62" class="st3" width="25" height="20"/>
<path class="st4" d="M19.5,568.2c2-16,11.9-31.7,27.1-36.9c-6,16.4-6,34.5,0,50.9c2.3,6.3,5.6,13.1,3.4,19.5c-1.4,4-4.7,7-8.5,8.9
	c-3.7,1.9-7.9,2.8-12,3.7l-0.8,0.7C22.2,600.3,17.5,584.2,19.5,568.2z"/>
<path class="st3" d="M46.8,531.6c-8.9,9.9-14.4,22.4-15.8,35.7c-0.3,2.8-0.2,5.7,0.3,8.5c0.6,2.7,2,5.2,3.9,7.3c1.8,1.9,3.8,3.7,5,6
	c1.3,2.4,1.4,5.3,0.5,7.8c-1.1,3.2-3.3,5.8-5.5,8.2c-2.5,2.7-5.1,5.5-6.1,9.2c-0.1,0.4-0.8,0.2-0.7-0.2c1.8-6.3,7.9-9.9,10.9-15.6
	c1.4-2.6,1.9-5.7,0.7-8.5c-1.1-2.4-3.2-4.3-5-6.2c-1.9-2-3.3-4.3-4.1-7c-0.7-2.8-0.9-5.7-0.6-8.5c0.5-6.4,2-12.7,4.5-18.7
	c2.8-6.8,6.7-13.1,11.6-18.6C46.6,530.7,47.1,531.2,46.8,531.6L46.8,531.6z"/>
<path class="st3" d="M31.2,563c-4.5-1.1-7.6-5.3-7.2-10c0-0.5,0.7-0.4,0.7,0c-0.3,4.3,2.5,8.3,6.8,9.3
	C31.9,562.4,31.6,563.1,31.2,563L31.2,563z"/>
<path class="st3" d="M34.2,582.2c4-2.4,6.9-6.1,8.2-10.6c0.1-0.4,0.8-0.2,0.7,0.2c-1.4,4.6-4.4,8.5-8.5,11
	C34.1,583.1,33.8,582.5,34.2,582.2z"/>
<path class="st3" d="M38.1,543.5c1.6,0.8,3.6,0.7,5.1-0.3c0.4-0.2,0.7,0.4,0.3,0.6c-1.7,1-3.8,1.1-5.6,0.3c-0.2-0.1-0.3-0.3-0.2-0.4
	C37.7,543.5,37.9,543.4,38.1,543.5z"/>
<path class="st4" d="M93.1,559.8c-0.2,0.2-0.5,0.3-0.7,0.5c-3.2,2.1-6.2,4.5-9.1,7.1c-0.2,0.2-0.4,0.4-0.7,0.6
	c-6.7,6.3-12.2,13.9-16.2,22.2c-1.6,3.3-2.9,6.8-4,10.3c-1.5,4.9-2.7,10.3-5.6,14.2c-0.3,0.4-0.6,0.8-1,1.2H29.6
	c-0.1,0-0.1-0.1-0.2-0.1l-1,0c0-0.2,0.1-0.4,0.1-0.6c0-0.1,0.1-0.2,0.1-0.3c0-0.1,0-0.1,0-0.2c0,0,0,0,0-0.1c0-0.1,0-0.1,0-0.2
	c0.3-1.1,0.5-2.1,0.8-3.2c0,0,0,0,0,0c2.1-8.2,5.1-16.1,9-23.6c0.1-0.2,0.2-0.4,0.4-0.7c1.8-3.3,3.9-6.5,6.2-9.4
	c1.3-1.6,2.6-3.2,4.1-4.7c3.7-3.8,8-7.1,12.7-9.5c9.4-5,20.3-6.9,30.4-3.8C92.6,559.7,92.8,559.7,93.1,559.8z"/>
<path class="st3" d="M93,560.1c-13.1,2.6-25,9.2-34.1,19c-2,2.1-3.6,4.4-4.9,7c-1.1,2.6-1.6,5.4-1.3,8.1c0.2,2.6,0.8,5.2,0.4,7.8
	c-0.4,2.7-2,5.1-4.3,6.5c-2.8,1.9-6.1,2.6-9.4,3.3c-3.6,0.7-7.4,1.4-10.4,3.6c-0.4,0.3-0.8-0.3-0.4-0.6c5.3-3.9,12.3-3.1,18-5.9
	c2.7-1.3,5-3.4,5.7-6.4c0.6-2.6,0-5.3-0.2-8c-0.3-2.7,0-5.5,0.9-8c1.1-2.6,2.7-5.1,4.6-7.2c4.3-4.8,9.3-9,14.8-12.2
	c6.3-3.8,13.2-6.4,20.5-7.9C93.4,559.4,93.5,560.1,93,560.1L93,560.1z"/>
<path class="st3" d="M61.7,575.8c-3-3.6-2.9-8.8,0.2-12.3c0.3-0.3,0.8,0.1,0.5,0.5c-2.9,3.3-3,8.1-0.2,11.5
	C62.5,575.8,62,576.2,61.7,575.8L61.7,575.8z"/>
<path class="st3" d="M52.5,593c4.6,0.5,9.2-0.8,12.9-3.5c0.4-0.3,0.8,0.3,0.4,0.6c-3.9,2.9-8.7,4.1-13.4,3.6
	C51.9,593.7,52,593,52.5,593L52.5,593z"/>
<path class="st3" d="M78.9,564.5c0.8,1.6,2.4,2.7,4.2,2.9c0.5,0,0.3,0.7-0.1,0.7c-2-0.2-3.7-1.4-4.7-3.2c-0.1-0.2-0.1-0.4,0.1-0.5
	C78.6,564.3,78.8,564.3,78.9,564.5L78.9,564.5z"/>
<path class="st4" d="M496.5,568.2c2-16,11.9-31.7,27.1-36.9c-6,16.4-6,34.5,0,50.9c2.3,6.3,5.6,13.1,3.4,19.5c-1.4,4-4.7,7-8.5,8.9
	c-3.7,1.9-7.9,2.8-12,3.7l-0.8,0.7C499.2,600.3,494.5,584.2,496.5,568.2z"/>
<path class="st3" d="M523.8,531.6c-8.9,9.9-14.4,22.4-15.8,35.7c-0.3,2.8-0.2,5.7,0.3,8.5c0.6,2.7,2,5.2,3.9,7.3
	c1.8,1.9,3.8,3.7,5,6c1.3,2.4,1.4,5.3,0.5,7.8c-1.1,3.2-3.3,5.8-5.5,8.2c-2.5,2.7-5.1,5.5-6.1,9.2c-0.1,0.4-0.8,0.2-0.7-0.2
	c1.8-6.3,7.9-9.9,10.9-15.6c1.4-2.6,1.9-5.7,0.7-8.5c-1.1-2.4-3.2-4.3-5-6.2c-1.9-2-3.3-4.3-4.1-7c-0.7-2.8-0.9-5.7-0.6-8.5
	c0.5-6.4,2-12.7,4.5-18.7c2.8-6.8,6.7-13.1,11.6-18.6C523.6,530.7,524.1,531.2,523.8,531.6z"/>
<path class="st3" d="M508.2,563c-4.5-1.1-7.6-5.3-7.2-10c0-0.5,0.7-0.4,0.7,0c-0.3,4.3,2.5,8.3,6.8,9.3
	C508.9,562.4,508.6,563.1,508.2,563L508.2,563z"/>
<path class="st3" d="M511.2,582.2c4-2.4,6.9-6.1,8.2-10.6c0.1-0.4,0.8-0.2,0.7,0.2c-1.4,4.6-4.4,8.5-8.5,11
	C511.1,583.1,510.8,582.5,511.2,582.2z"/>
<path class="st3" d="M515.1,543.5c1.6,0.8,3.6,0.7,5.1-0.3c0.4-0.2,0.7,0.4,0.3,0.6c-1.7,1-3.8,1.1-5.6,0.3
	c-0.2-0.1-0.3-0.3-0.2-0.4C514.7,543.5,514.9,543.4,515.1,543.5L515.1,543.5z"/>
<path class="st4" d="M570.1,559.8c-0.2,0.2-0.5,0.3-0.7,0.5c-3.2,2.1-6.2,4.5-9.1,7.1c-0.2,0.2-0.4,0.4-0.7,0.6
	c-6.7,6.3-12.2,13.9-16.2,22.2c-1.6,3.3-2.9,6.8-4,10.3c-1.5,4.9-2.7,10.3-5.6,14.2c-0.3,0.4-0.6,0.8-1,1.2h-26.3
	c-0.1,0-0.1-0.1-0.2-0.1l-1,0c0-0.2,0.1-0.4,0.1-0.6c0-0.1,0.1-0.2,0.1-0.3c0-0.1,0-0.1,0-0.2c0,0,0,0,0-0.1c0-0.1,0-0.1,0-0.2
	c0.3-1.1,0.5-2.1,0.8-3.2c0,0,0,0,0,0c2.1-8.2,5.1-16.1,9-23.6c0.1-0.2,0.2-0.4,0.4-0.7c1.8-3.3,3.9-6.5,6.2-9.4
	c1.3-1.6,2.6-3.2,4.1-4.7c3.7-3.8,8-7.1,12.7-9.5c9.4-5,20.3-6.9,30.4-3.8C569.6,559.7,569.8,559.7,570.1,559.8z"/>
<path class="st3" d="M570,560.1c-13.1,2.6-25,9.2-34.1,19c-2,2.1-3.6,4.4-4.9,7c-1.1,2.6-1.6,5.4-1.3,8.1c0.2,2.6,0.8,5.2,0.4,7.8
	c-0.4,2.7-2,5.1-4.3,6.5c-2.8,1.9-6.1,2.6-9.4,3.3c-3.6,0.7-7.4,1.4-10.4,3.6c-0.4,0.3-0.8-0.3-0.4-0.6c5.3-3.9,12.3-3.1,18-5.9
	c2.7-1.3,5-3.4,5.7-6.4c0.6-2.6,0-5.3-0.2-8c-0.3-2.7,0-5.5,0.9-8c1.1-2.6,2.7-5.1,4.6-7.2c4.3-4.8,9.3-9,14.8-12.2
	c6.3-3.8,13.2-6.4,20.5-7.9C570.4,559.4,570.5,560.1,570,560.1z"/>
<path class="st3" d="M538.7,575.8c-3-3.6-2.9-8.8,0.2-12.3c0.3-0.3,0.8,0.1,0.5,0.5c-2.9,3.3-3,8.1-0.2,11.5
	C539.5,575.8,539,576.2,538.7,575.8z"/>
<path class="st3" d="M529.5,593c4.6,0.5,9.2-0.8,12.9-3.5c0.4-0.3,0.8,0.3,0.4,0.6c-3.9,2.9-8.7,4.1-13.4,3.6
	C528.9,593.7,529,593,529.5,593z"/>
<path class="st3" d="M555.9,564.5c0.8,1.6,2.4,2.7,4.2,2.9c0.5,0,0.3,0.7-0.1,0.7c-2-0.2-3.7-1.4-4.7-3.2c-0.1-0.2-0.1-0.4,0.1-0.5
	C555.6,564.3,555.8,564.3,555.9,564.5z"/>
<path class="st5" d="M207.3,75c-2.1-1.5-4.4-3-6.9-3c-6.2,0.1-9.5,9.2-15.7,8.9c-3.9-0.2-6.6-4.2-10.2-5.7
	c-4.8-1.9-10.9,1.8-11.4,6.9l0.6-0.6c18.6,4.5,37.8,5.4,56.8,2.6C216.1,81.2,211.7,78.1,207.3,75z"/>
<path class="st5" d="M492.3,34c-2.1-1.5-4.4-3-6.9-3c-6.2,0.1-9.5,9.2-15.7,8.9c-3.9-0.2-6.6-4.2-10.2-5.7
	c-4.8-1.9-10.9,1.8-11.4,6.9l0.6-0.6c18.6,4.5,37.8,5.4,56.8,2.6C501.1,40.2,496.7,37.1,492.3,34z"/>
<path class="st5" d="M333.3,201c-2.1-1.5-4.4-3-6.9-3c-6.2,0.1-9.5,9.2-15.7,8.9c-3.9-0.2-6.6-4.2-10.2-5.7
	c-4.8-1.9-10.9,1.8-11.4,6.9l0.6-0.6c18.6,4.5,37.8,5.4,56.8,2.6C342.1,207.2,337.7,204.1,333.3,201z"/>
<path class="st6" d="M357.6,373.4c5.5-0.6,9.4-5.5,8.8-10.9c-0.1-0.6-0.2-1.2-0.3-1.7l28.8-20.3l-17.1-6.7l-24.8,20.3
	c-5.2,1.9-7.9,7.6-6,12.8C348.7,371.2,353,373.9,357.6,373.4L357.6,373.4z"/>
<path class="st6" d="M552,386.6c2.5-4.9,0.5-10.9-4.4-13.3c-0.5-0.3-1.1-0.5-1.6-0.6l-1.5-35.3l-14.9,10.8l3.7,31.8
	c-1.2,5.4,2.1,10.7,7.5,12C545.4,392.9,550,390.7,552,386.6L552,386.6z"/>
<polygon class="st6" points="504.4,601.9 489.5,601.9 482.5,544.6 504.4,544.6 "/>
<path class="st7" d="M508.2,616.3l-47.9,0v-0.6c0-10.3,8.3-18.6,18.6-18.6h0l8.7-6.6L504,597l4.2,0L508.2,616.3z"/>
<polygon class="st6" points="410.1,601.5 395.4,599.4 396.6,541.7 418.3,544.8 "/>
<path class="st7" d="M411.8,616.3l-47.4-6.8l0.1-0.6c1.5-10.2,10.9-17.2,21.1-15.8l0,0l9.6-5.3l15.2,8.9l4.1,0.6L411.8,616.3z"/>
<path class="st7" d="M526.7,381.2c-8.1-2-16.2-4.1-24.3-6.1c-12.9-3.2-25.8-6.5-38.8-9.7l-8.9-2.2c-0.2-0.1-0.5-0.1-0.7,0
	c-0.4,0.1-0.8,0.3-1,0.7c-2,3.3-4,6.7-6,10l-14.1,23.6c-5.5,9.2-11,18.4-16.5,27.5l-13.1,21.9c-1.2,2-2.3,3.9-3.5,5.9
	c-0.5,0.7-0.8,1.4-0.9,2.2c-0.4,4.5-0.7,9-1,13.5c-0.7,9.1-1.4,18.2-2.1,27.3l-2.5,32.1c-0.7,9.4-1.4,18.8-2.2,28.1
	c-0.4,5-0.8,10-1.2,15l-0.1,0.7c0,0.7,0.5,1.3,1.1,1.4l23.6,7.9l3.4,1.1c0.8,0.2,1.6-0.3,1.8-1c1.5-9.3,3.1-18.6,4.6-27.9
	c2.5-15,5-29.9,7.5-44.9c0.4-2.3,0.8-4.7,1.2-7c0.3-1.2,0.5-2.4,0.6-3.5c0.5-0.6,0.9-1.2,1.2-1.9c1.4-2.8,1.8-6.1,0.9-9.1l-0.1-0.4
	c0-0.1,0-0.1,0-0.1c0.1-0.7,0.2-1.3,0.3-2c0.3-1.9,0.6-3.9,1-5.8c0.3-1.6,0.5-3.1,0.8-4.7c0-0.1,0-0.2,0.1-0.2
	c-0.1,0.1-0.2,0.1-0.3,0.1c0.1,0,0.1-0.1,0.2-0.2c0.1,0,0.1-0.1,0.2-0.1c0,0,0-0.1,0-0.1c0-0.3,0.1-0.2,0.1,0c1-0.9,1.9-1.9,2.8-2.8
	c4.7-4.7,9.3-9.3,14-14c8.4-8.4,16.8-16.8,25.2-25.2v130.6c0,6.2-0.2,12.4,0,18.5c0,0.1,0,0.2,0,0.3c0,0.8,0.7,1.5,1.5,1.5h27
	c0.8,0,1.5-0.7,1.5-1.5c0.3-3.6,0.7-7.3,1-10.9c0.8-8.3,1.5-16.6,2.3-24.9c0.8-9.1,1.6-18.1,2.5-27.2l1.6-17.6
	c0-0.4,0.1-0.9,0.1-1.3c0.1-0.1,0.1-0.3,0.2-0.4c0.2-0.5,0.5-1.1,0.7-1.6c1.3-2.8,2.3-5.6,1.9-8.7c-0.1-0.9-0.3-1.8-0.6-2.6
	c-0.1-0.5-0.3-0.9-0.5-1.3c-0.1-0.2-0.2-0.5-0.3-0.7c0,0,0,0,0-0.1c0.4-2.3,0.4-4.7,0.6-6.9c0.4-4.1,0.8-8.3,1.1-12.4l2.3-25
	l0.8-9.2l2.3-25.1c0.6-6.9,1.3-13.9,1.9-20.8c0-0.4,0.1-0.8,0.1-1.2C527.8,382,527.4,381.4,526.7,381.2z"/>
<path class="st7" d="M437.7,473.5c0.1-0.1,0.2-0.2,0.2-0.3c-0.1,0-0.1,0.1-0.2,0.1C437.7,473.4,437.7,473.5,437.7,473.5z"/>
<path class="st8" d="M508.3,211.6l-18-18v-9l-36,9v18c0,0-27,54-18,81c5.3,15.9,7.5,41,8.4,59.1c0.1,1.7,2.4,3.7,2.4,5.3
	c0.1,1.4-6,4.7-6,6c0.3,7.9,4.2,10.6,4.2,10.6l81,9c-0.6-6.6,1-8.2,0.8-14.6c-0.1-2.1-5-8.9-5-11c0-2,3-4.3,3-6.3
	c0-1.3,0-2.5,0.1-3.8c0.6-22,3.8-43.1,10.1-63.3L508.3,211.6z"/>
<path class="st8" d="M527.6,367.5l-1.8-68.8l-36.8-66.2c-3.9-7-1.4-15.8,5.6-19.7c7-3.9,15.8-1.4,19.7,5.6l39.4,71l0,0.1l-2.2,41.4
	l-3,15.9l1.8,4.9l-0.8,14.7L527.6,367.5z"/>
<path class="st8" d="M383.4,359.4l-22.1-14.3l53.6-47.2l28.3-70.2c3-7.4,11.4-11,18.9-8c0.8,0.3,1.6,0.7,2.4,1.2l0,0
	c5.9,3.8,8.2,11.2,5.6,17.6l-30.4,75.3l-14.3,8.6l-5.4,7.4l-4.6-0.2l-1.5,5.1l-8.6,3.8L383.4,359.4z"/>
<path class="st6" d="M499.3,144.8c0,17.2-13.9,31.1-31.1,31.1s-31.1-13.9-31.1-31.1s13.9-31.1,31.1-31.1l0,0l0,0
	c17.1,0,31,13.8,31.1,30.9l0,0C499.3,144.7,499.3,144.7,499.3,144.8z"/>
<path class="st7" d="M437.3,103c3.6-7.8,10.7-6.3,16.8-3.6c7.8-1.7,15.2-6.9,23.6-3.8c8.3,12,36.1,8.5,30.1,28.1
	c0,4.7,8.8,2,7.3,9.7c4.7,14.8-16.9,42.8-29.3,36.9c3.1-5.6,10.1-18.4-0.6-19.6c-22.8,21.3-2.4-40.5-31.1-22.5
	C444.8,136.8,431.7,111.7,437.3,103z"/>
<path class="st4" d="M648.5,618.6H1.2c-0.7,0-1.2-0.5-1.2-1.2c0-0.7,0.5-1.2,1.2-1.2h647.3c0.7,0,1.2,0.5,1.2,1.2
	C649.7,618.1,649.1,618.6,648.5,618.6z"/>
<path class="st3" d="M488.6,161L488.6,161c0.8-1.9,0.5-4.1-1-5.6c-0.5-0.5-1.1-1-1.8-1.4l-0.3-0.1c-1.5-0.4-3.2,0.3-4,1.6l-0.1,0.2
	c-0.6,1-0.7,2.1-0.2,3.2l0.5,1.3l-3.3,5.5c-0.3,0.5-0.2,1.1,0.3,1.5l0.7,0.5c0.5,0.3,1.2,0.2,1.5-0.3c0,0,0,0,0,0l2.9-4.5
	c0.3,0.1,0.6,0.2,0.9,0.3l0,0C486.4,163.3,488,162.4,488.6,161z"/>
<path class="st7" d="M483.4,160.3c-0.4-0.2-0.5-0.7-0.2-1.1l1.2-1.9c0.2-0.4,0.7-0.5,1.1-0.3c0.4,0.2,0.5,0.7,0.3,1.1c0,0,0,0,0,0
	l-1.2,1.9C484.2,160.4,483.8,160.5,483.4,160.3z"/>
<path class="st1" d="M374.2,376.9l-14.5,7.4c-1.8,0.9-4,0.2-5-1.6L335.9,346c-0.9-1.8-0.2-4,1.6-5l14.5-7.4c1.8-0.9,4-0.2,5,1.6
	l18.8,36.7C376.7,373.8,376,376,374.2,376.9z"/>
<path class="st3" d="M352.3,334.7l-1.6,0.8c-0.3,0.2-0.4,0.5-0.3,0.8c0.3,0.6,0.1,1.4-0.5,1.7l-7.9,4c-0.6,0.3-1.4,0.1-1.7-0.5
	c-0.2-0.3-0.5-0.4-0.8-0.3l-1.4,0.7c-1.4,0.7-1.9,2.4-1.2,3.8l18.7,36.5c0.7,1.4,2.4,1.9,3.8,1.2l14.3-7.3c1.4-0.7,1.9-2.4,1.2-3.8
	l-18.7-36.5C355.4,334.6,353.7,334,352.3,334.7z"/>
<path class="st3" d="M347.5,338.1l-4.5,2.3c-0.1,0-0.2,0-0.2-0.1s0-0.2,0.1-0.2c0,0,0,0,0,0l4.5-2.3c0.1,0,0.2,0,0.2,0.1
	S347.6,338.1,347.5,338.1C347.5,338.1,347.5,338.1,347.5,338.1z"/>
<circle class="st3" cx="348.1" cy="337.6" r="0.1"/>
<path class="st1" d="M362.8,346.4c-0.2,0.1-0.4,0-0.4-0.1l-2.9-5.6c-0.1-0.2,0-0.4,0.1-0.4c0.2-0.1,0.4,0,0.4,0.1c0,0,0,0,0,0
	l2.9,5.6C363,346.1,363,346.3,362.8,346.4z"/>
<path class="st1" d="M339.5,353.1c-0.2,0.1-0.4,0-0.4-0.1l-0.7-1.3c-0.1-0.2,0-0.4,0.1-0.4c0.2-0.1,0.4,0,0.4,0.1l0.7,1.3
	C339.7,352.8,339.6,353,339.5,353.1z"/>
<path class="st1" d="M340.7,355.4c-0.2,0.1-0.4,0-0.4-0.1l-0.7-1.3c-0.1-0.2,0-0.4,0.1-0.4c0.2-0.1,0.4,0,0.4,0.1l0.7,1.3
	C340.9,355.2,340.9,355.4,340.7,355.4z"/>
</svg>
