<?xml version="1.0" encoding="utf-8"?>
<!-- Generator: Adobe Illustrator 27.5.0, SVG Export Plug-In . SVG Version: 6.00 Build 0)  -->
<svg version="1.1" id="Layer_1" xmlns="http://www.w3.org/2000/svg" xmlns:xlink="http://www.w3.org/1999/xlink" x="0px" y="0px"
	 viewBox="0 0 888.5 744" style="enable-background:new 0 0 888.5 744;" xml:space="preserve">
<style type="text/css">
	.st0{fill:#FF6584;}
	.st1{fill:#292989;}
	.st2{fill:#E6E6E6;}
	.st3{fill:#FFFFFF;}
	.st4{fill:#CCCCCC;}
	.st5{fill:#E8202A;}
	.st6{fill:#F2F2F2;}
</style>
<circle class="st0" cx="249.5" cy="102.7" r="65.6"/>
<polygon class="st1" points="632.7,121.8 554,121.8 554,50.3 "/>
<rect x="245.9" y="119.5" class="st2" width="396" height="547"/>
<rect x="285.4" y="157.9" class="st3" width="46.6" height="98.2"/>
<rect x="357.5" y="157.9" class="st3" width="46.6" height="98.2"/>
<rect x="279.3" y="297" class="st3" width="46.6" height="98.2"/>
<rect x="357.5" y="297" class="st3" width="46.6" height="98.2"/>
<rect x="279.3" y="425.7" class="st3" width="46.6" height="98.2"/>
<rect x="355.7" y="424" class="st3" width="46.6" height="98.2"/>
<rect x="423.4" y="568.6" class="st4" width="46.6" height="98.2"/>
<rect x="493.8" y="424" class="st3" width="46.6" height="98.2"/>
<rect x="572" y="424" class="st3" width="46.6" height="98.2"/>
<rect x="495.6" y="295.9" class="st3" width="46.6" height="98.2"/>
<rect x="573.7" y="295.9" class="st3" width="46.6" height="98.2"/>
<rect x="495.6" y="157.9" class="st3" width="46.6" height="98.2"/>
<rect x="573.7" y="157.9" class="st3" width="46.6" height="98.2"/>
<rect x="245.9" y="245.9" class="st1" width="396" height="15"/>
<rect x="245.9" y="362.4" class="st1" width="396" height="8.3"/>
<rect x="245.9" y="335.8" class="st1" width="396" height="8.3"/>
<rect x="276.7" y="463.9" class="st1" width="8.3" height="66.5"/>
<rect x="323.3" y="463.9" class="st1" width="8.3" height="66.5"/>
<rect x="369.9" y="463.9" class="st1" width="8.3" height="66.5"/>
<rect x="416.4" y="463.9" class="st1" width="8.3" height="66.5"/>
<rect x="463" y="463.9" class="st1" width="8.3" height="66.5"/>
<rect x="509.6" y="463.9" class="st1" width="8.3" height="66.5"/>
<rect x="556.2" y="463.9" class="st1" width="8.3" height="66.5"/>
<rect x="602.8" y="463.9" class="st1" width="8.3" height="66.5"/>
<rect x="277.5" y="337.4" class="st1" width="8.3" height="66.5"/>
<rect x="324.1" y="337.4" class="st1" width="8.3" height="66.5"/>
<rect x="370.7" y="337.4" class="st1" width="8.3" height="66.5"/>
<rect x="417.3" y="337.4" class="st1" width="8.3" height="66.5"/>
<rect x="463.9" y="337.4" class="st1" width="8.3" height="66.5"/>
<rect x="510.4" y="337.4" class="st1" width="8.3" height="66.5"/>
<rect x="557" y="337.4" class="st1" width="8.3" height="66.5"/>
<rect x="603.6" y="337.4" class="st1" width="8.3" height="66.5"/>
<rect x="277.5" y="189.4" class="st1" width="8.3" height="66.5"/>
<rect x="324.1" y="189.4" class="st1" width="8.3" height="66.5"/>
<rect x="370.7" y="189.4" class="st1" width="8.3" height="66.5"/>
<rect x="417.3" y="189.4" class="st1" width="8.3" height="66.5"/>
<rect x="463.9" y="189.4" class="st1" width="8.3" height="66.5"/>
<rect x="510.4" y="189.4" class="st1" width="8.3" height="66.5"/>
<rect x="557" y="189.4" class="st1" width="8.3" height="66.5"/>
<rect x="603.6" y="189.4" class="st1" width="8.3" height="66.5"/>
<rect x="245.9" y="212.7" class="st1" width="396" height="8.3"/>
<rect x="245.9" y="186.1" class="st1" width="396" height="8.3"/>
<rect x="245.9" y="390.7" class="st1" width="396" height="15"/>
<rect x="227.7" y="113.4" class="st1" width="432.4" height="22.3"/>
<polygon class="st3" points="332.1,589.8 332.1,568.6 306.6,568.6 306.6,589.8 330,589.8 "/>
<polygon class="st3" points="330,606.8 306.6,606.8 306.6,628 332.1,628 332.1,606.8 "/>
<rect x="349.1" y="568.6" class="st3" width="25.5" height="21.2"/>
<rect x="349.1" y="606.8" class="st3" width="25.5" height="21.2"/>
<polygon class="st3" points="539.8,589.8 539.8,568.6 514.4,568.6 514.4,589.8 537.7,589.8 "/>
<polygon class="st3" points="537.7,606.8 514.4,606.8 514.4,628 539.8,628 539.8,606.8 "/>
<rect x="556.8" y="568.6" class="st3" width="25.5" height="21.2"/>
<rect x="556.8" y="606.8" class="st3" width="25.5" height="21.2"/>
<rect x="245.9" y="517.1" class="st1" width="396" height="15"/>
<rect x="245.9" y="490.5" class="st1" width="396" height="8.3"/>
<rect x="245.9" y="463.9" class="st1" width="396" height="8.3"/>
<path class="st5" d="M365.8,659.4c0-0.5,0-0.9,0-1.4c-0.4-12.3-12.5-15.6-19-9.8c-4.3-3.7-10.6-3.7-14.8,0
	c-6.5-5.7-18.5-2.6-18.9,9.5c0,0.5,0,0.9,0,1.4c0,2.5,0.2,5.1,0.5,7.6h51.9C365.6,664.3,365.8,661.9,365.8,659.4z"/>
<path class="st5" d="M571.9,659.4c0-0.5,0-0.9,0-1.4c-0.4-12.3-12.5-15.6-19-9.8c-4.3-3.7-10.6-3.7-14.8,0
	c-6.5-5.7-18.5-2.6-18.9,9.5c0,0.5,0,0.9,0,1.4c0,2.5,0.2,5.1,0.5,7.6h51.9C571.7,664.3,571.9,661.9,571.9,659.4z"/>
<polygon class="st2" points="856.3,667.6 848.3,667.6 851,510.9 853.6,510.9 "/>
<path class="st2" d="M863,412.3l12.9-20c-3.8-10.6-8.3-21-13.3-31.1l-8.4,6.8l6.6-10.2c-6.3-12.4-11.3-20.3-11.3-20.3
	s-26,40.9-34.6,84.2l16.6,25.7l-18.4-14.9c-0.7,5-1,10.1-1,15.2c0,51.3,16.8,92.9,37.4,92.9c20.7,0,37.4-41.6,37.4-92.9
	c0-15.9-3.6-32.5-8.6-47.9L863,412.3z"/>
<polygon class="st5" points="828.1,448.4 657,448.4 657,574.4 657.1,574.4 657.1,599.5 682.2,574.4 828.1,574.4 "/>
<rect x="459.9" y="717.5" class="st2" width="151.8" height="6"/>
<rect x="735.9" y="717.5" class="st2" width="152.6" height="6"/>
<rect x="183.9" y="717.5" class="st2" width="152" height="6"/>
<rect y="666.6" class="st1" width="887.9" height="1.7"/>
<rect x="696.4" y="692.7" class="st1" width="17.9" height="2.8"/>
<path class="st5" d="M567.2,693.3l3.7,0.9l140.2,0.1l1.3-2.9c2.2-5,3-10.6,2.2-16c-0.6-4.1-2.1-8.1-5.6-9.8l-6.2-41.4l-77.5-0.1
	l-30,24.2c0,0-14.2-0.3-21.8,9.3c-2.8,3.6-4.4,7.9-4.7,12.4l-0.3,5L567.2,693.3z"/>
<circle class="st1" cx="597.9" cy="692.6" r="17.3"/>
<circle class="st4" cx="597.9" cy="692.6" r="9.1"/>
<circle class="st1" cx="683.3" cy="692.7" r="17.3"/>
<circle class="st4" cx="683.3" cy="692.7" r="9.1"/>
<polygon class="st3" points="607,645.2 648.9,645.3 654,645.3 662.7,645.3 662.7,644.6 662.7,637.1 662.7,628.5 656.9,628.5 
	651.8,628.5 642.8,628.5 637.6,628.5 627.2,628.5 "/>
<polygon class="st3" points="669.5,645.3 691.6,645.3 691.6,640.9 691.6,633.4 691.6,628.5 688.4,628.5 683.3,628.5 669.5,628.5 "/>
<rect x="659.8" y="657.8" class="st1" width="2.8" height="5.4"/>
<rect x="613" y="650.1" class="st1" width="5.4" height="2.8"/>
<path class="st1" d="M616.4,651.3l-0.3,0c-3.3,0-5.9-2.7-5.9-5.9l0,0c0-3.3,2.7-5.9,5.9-5.9l0.3,0l0,0L616.4,651.3L616.4,651.3z"/>
<path class="st1" d="M568.3,674.7c5,0.5,9.6-3.1,10.1-8.1c0.4-3.8-1.6-7.5-5.1-9.2c-2.8,3.6-4.4,7.9-4.7,12.4L568.3,674.7z"/>
<polygon class="st6" points="651.8,628.5 662.7,644.6 662.7,637.1 656.9,628.5 "/>
<polygon class="st6" points="683.3,628.5 691.6,640.9 691.6,633.4 688.4,628.5 "/>
<polygon class="st6" points="637.6,628.5 648.9,645.3 654,645.3 642.8,628.5 "/>
<path class="st2" d="M410.4,1l-0.1,0.1c-2.5,1.4-5.6,1.4-8.2,0c-0.1,0-0.1-0.1-0.2-0.1c-2.5-1.4-5.6-1.3-8.1,0l-0.1,0.1
	c-2.5,1.4-5.6,1.4-8.2,0c-0.1,0-0.1-0.1-0.2-0.1c-2.5-1.4-5.5-1.4-8.1,0c-3.8,2-8.9,5.5-8.9,9.5c0,0.2,0,0.3,0,0.5
	c0.4,4.1,13.8,5.1,21.1,3.2c5.5,1.2,11.2,1.2,16.6,0c7.3,2,20.9,0.8,21.3-3.3c0-0.2,0-0.3,0-0.5c0-3.9-5.2-7.4-9-9.4
	C415.9-0.4,412.9-0.3,410.4,1z"/>
<path class="st2" d="M778.4,136.3l-0.1,0.1c-2.5,1.4-5.6,1.4-8.2,0c-0.1,0-0.1-0.1-0.2-0.1c-2.5-1.4-5.6-1.3-8.1,0l-0.1,0.1
	c-2.5,1.4-5.6,1.4-8.2,0c-0.1,0-0.1-0.1-0.2-0.1c-2.5-1.4-5.5-1.4-8.1,0c-3.8,2-8.9,5.5-8.9,9.5c0,0.2,0,0.3,0,0.5
	c0.4,4.1,13.8,5.1,21.1,3.2c5.5,1.2,11.2,1.2,16.6,0c7.3,2,20.9,0.8,21.3-3.3c0-0.2,0-0.3,0-0.5c0-3.9-5.2-7.4-9-9.4
	C783.9,134.9,780.9,134.9,778.4,136.3z"/>
<path class="st2" d="M134,143.8l-0.1,0.1c-2.5,1.4-5.6,1.4-8.2,0c-0.1,0-0.1-0.1-0.2-0.1c-2.5-1.4-5.6-1.3-8.1,0l-0.1,0.1
	c-2.5,1.4-5.6,1.4-8.2,0c-0.1,0-0.1-0.1-0.2-0.1c-2.5-1.4-5.5-1.4-8.1,0c-3.8,2-8.9,5.5-8.9,9.5c0,0.2,0,0.3,0,0.5
	c0.4,4.1,13.8,5.1,21.1,3.2c5.5,1.2,11.2,1.2,16.6,0c7.3,2,20.9,0.8,21.3-3.3c0-0.2,0-0.3,0-0.5c0-3.9-5.2-7.4-9-9.4
	C139.5,142.4,136.5,142.4,134,143.8z"/>
<rect x="92.3" y="726.7" class="st1" width="17.9" height="2.8"/>
<path class="st5" d="M239.4,727.3l-3.7,0.9l-140.2,0.1l-1.3-2.9c-2.2-5-3-10.6-2.2-16c0.6-4.1,2.1-8.1,5.6-9.8l6.2-41.4l77.5-0.1
	l30,24.2c0,0,14.2-0.3,21.8,9.3c2.8,3.6,4.4,7.9,4.7,12.4l0.3,5L239.4,727.3z"/>
<circle class="st1" cx="208.6" cy="726.6" r="17.3"/>
<circle class="st4" cx="208.6" cy="726.6" r="9.1"/>
<ellipse transform="matrix(0.9951 -9.853759e-02 9.853759e-02 0.9951 -71.0045 15.6768)" class="st1" cx="123.2" cy="726.7" rx="17.3" ry="17.3"/>
<circle class="st4" cx="123.2" cy="726.7" r="9.1"/>
<polygon class="st3" points="199.5,679.2 157.6,679.3 152.5,679.3 143.9,679.3 143.9,678.6 143.9,671.1 143.9,662.5 149.6,662.5 
	154.7,662.5 163.8,662.5 168.9,662.5 179.4,662.5 "/>
<polygon class="st3" points="137.1,679.3 115,679.3 114.9,674.9 114.9,667.4 114.9,662.5 118.2,662.5 123.3,662.5 137.1,662.5 "/>
<rect x="143.9" y="691.8" class="st1" width="2.8" height="5.4"/>
<rect x="188.2" y="684.1" class="st1" width="5.4" height="2.8"/>
<path class="st1" d="M190.1,673.5h0.3c3.3,0,5.9,2.7,5.9,5.9l0,0c0,3.3-2.7,5.9-5.9,5.9h-0.3l0,0L190.1,673.5L190.1,673.5z"/>
<path class="st1" d="M238.3,708.7c-5,0.5-9.6-3.1-10.1-8.1c-0.4-3.8,1.6-7.5,5.1-9.2c2.8,3.6,4.4,7.9,4.7,12.4L238.3,708.7z"/>
<polygon class="st6" points="154.7,662.5 143.9,678.6 143.9,671.1 149.6,662.5 "/>
<polygon class="st6" points="123.3,662.5 114.9,674.9 114.9,667.4 118.2,662.5 "/>
<polygon class="st6" points="168.9,662.5 157.6,679.3 152.5,679.3 163.8,662.5 "/>
<polygon class="st3" points="736.5,538.3 714.7,510.2 727.4,500.3 737.7,513.6 772.7,476.7 784.4,487.8 "/>
<polygon class="st5" points="6.3,480.3 177.4,480.3 177.4,606.3 177.3,606.3 177.3,631.4 152.3,606.3 6.3,606.3 "/>
<polygon class="st3" points="87,573.2 65.2,545.1 77.9,535.2 88.2,548.5 123.2,511.6 134.9,522.7 "/>
</svg>
